<svg width="453" height="114" viewBox="0 0 453 114" fill="none" xmlns="http://www.w3.org/2000/svg">
<path d="M112.893 61H105.678V51.9H112.893V53.72H108.018V55.475H111.853V57.295H108.018V59.18H112.893V61ZM117.31 61C116.729 61.0867 116.175 61.13 115.646 61.13C115.126 61.13 114.688 60.9523 114.333 60.597C113.978 60.2417 113.8 59.7693 113.8 59.18V51.9H116.075V58.855C116.075 58.985 116.118 59.0933 116.205 59.18C116.292 59.2667 116.4 59.31 116.53 59.31H117.31V61ZM120.883 55.605C120.536 55.605 120.363 55.7783 120.363 56.125V56.84H122.573V56.125C122.573 55.7783 122.4 55.605 122.053 55.605H120.883ZM124.588 60.87C122.915 61.0433 121.399 61.13 120.038 61.13C119.449 61.13 118.976 60.9523 118.621 60.597C118.266 60.2417 118.088 59.7693 118.088 59.18V56.06C118.088 55.41 118.27 54.903 118.634 54.539C119.007 54.1663 119.518 53.98 120.168 53.98H122.768C123.418 53.98 123.925 54.1663 124.289 54.539C124.662 54.903 124.848 55.41 124.848 56.06V58.465H120.363V58.985C120.363 59.115 120.406 59.2233 120.493 59.31C120.58 59.3967 120.688 59.44 120.818 59.44C121.676 59.44 122.933 59.375 124.588 59.245V60.87ZM130.501 54.11H132.906L130.306 61H127.706L125.106 54.11H127.511L129.006 58.79L130.501 54.11ZM135.903 59.31C136.362 59.31 136.882 59.2233 137.463 59.05V58.27H135.578C135.448 58.27 135.34 58.3133 135.253 58.4C135.166 58.4867 135.123 58.595 135.123 58.725V58.855C135.123 58.985 135.166 59.0933 135.253 59.18C135.34 59.2667 135.448 59.31 135.578 59.31H135.903ZM133.498 54.24C135.084 54.0667 136.514 53.98 137.788 53.98C138.377 53.98 138.85 54.1577 139.205 54.513C139.56 54.8683 139.738 55.3407 139.738 55.93V61H137.723L137.593 60.35C137.186 60.6187 136.765 60.818 136.332 60.948C135.907 61.0693 135.548 61.13 135.253 61.13H134.798C134.209 61.13 133.736 60.9523 133.381 60.597C133.026 60.2417 132.848 59.7693 132.848 59.18V58.595C132.848 58.0057 133.026 57.5333 133.381 57.178C133.736 56.8227 134.209 56.645 134.798 56.645H137.463V56.125C137.463 55.995 137.42 55.8867 137.333 55.8C137.246 55.7133 137.138 55.67 137.008 55.67C136.445 55.67 135.821 55.696 135.136 55.748C134.46 55.8 133.914 55.839 133.498 55.865V54.24ZM145.714 61C144.874 61.0867 144.05 61.13 143.244 61.13C142.655 61.13 142.183 60.9523 141.827 60.597C141.472 60.2417 141.294 59.7693 141.294 59.18V55.865H140.514V54.11H141.294L141.554 52.55H143.569V54.11H145.194V55.865H143.569V58.855C143.569 58.985 143.613 59.0933 143.699 59.18C143.786 59.2667 143.894 59.31 144.024 59.31H145.714V61ZM149.168 55.605C148.821 55.605 148.648 55.7783 148.648 56.125V56.84H150.858V56.125C150.858 55.7783 150.685 55.605 150.338 55.605H149.168ZM152.873 60.87C151.2 61.0433 149.684 61.13 148.323 61.13C147.734 61.13 147.261 60.9523 146.906 60.597C146.551 60.2417 146.373 59.7693 146.373 59.18V56.06C146.373 55.41 146.555 54.903 146.919 54.539C147.292 54.1663 147.803 53.98 148.453 53.98H151.053C151.703 53.98 152.21 54.1663 152.574 54.539C152.947 54.903 153.133 55.41 153.133 56.06V58.465H148.648V58.985C148.648 59.115 148.691 59.2233 148.778 59.31C148.865 59.3967 148.973 59.44 149.103 59.44C149.961 59.44 151.218 59.375 152.873 59.245V60.87ZM157.285 51.9H159.755L161.9 56.32L164.045 51.9H166.515L163.07 58.595V61H160.73V58.595L157.285 51.9ZM173.277 59.05C173.277 59.7 173.091 60.2113 172.718 60.584C172.354 60.948 171.847 61.13 171.197 61.13H168.207C167.557 61.13 167.046 60.948 166.673 60.584C166.309 60.2113 166.127 59.7 166.127 59.05V56.06C166.127 55.41 166.309 54.903 166.673 54.539C167.046 54.1663 167.557 53.98 168.207 53.98H171.197C171.847 53.98 172.354 54.1663 172.718 54.539C173.091 54.903 173.277 55.41 173.277 56.06V59.05ZM171.002 56.255C171.002 55.9083 170.829 55.735 170.482 55.735H168.922C168.575 55.735 168.402 55.9083 168.402 56.255V58.855C168.402 59.2017 168.575 59.375 168.922 59.375H170.482C170.829 59.375 171.002 59.2017 171.002 58.855V56.255ZM177.63 59.245C178.09 59.245 178.61 59.1583 179.19 58.985V54.11H181.465V61H179.45L179.32 60.35C178.913 60.6187 178.493 60.818 178.059 60.948C177.635 61.0693 177.275 61.13 176.98 61.13H176.395C175.806 61.13 175.334 60.9523 174.978 60.597C174.623 60.2417 174.445 59.7693 174.445 59.18V54.11H176.72V58.79C176.72 58.92 176.764 59.0283 176.85 59.115C176.937 59.2017 177.045 59.245 177.175 59.245H177.63ZM186.726 55.995C186.18 55.995 185.617 56.125 185.036 56.385V61H182.761V54.11H184.776L184.906 54.955C185.651 54.305 186.431 53.98 187.246 53.98H187.831V55.995H186.726ZM200.568 60.805C198.54 61.0217 196.676 61.13 194.978 61.13C194.128 61.13 193.504 60.9307 193.106 60.532C192.707 60.1333 192.508 59.5093 192.508 58.66V54.5C192.508 53.59 192.711 52.9313 193.119 52.524C193.535 52.108 194.198 51.9 195.108 51.9H199.788V53.72H195.628C195.108 53.72 194.848 53.98 194.848 54.5V58.66C194.848 58.8593 194.904 59.0197 195.017 59.141C195.138 59.2537 195.298 59.31 195.498 59.31C196.494 59.31 197.404 59.2883 198.228 59.245V57.36H196.538V55.8H200.568V60.805ZM204.47 59.31C204.93 59.31 205.45 59.2233 206.03 59.05V58.27H204.145C204.015 58.27 203.907 58.3133 203.82 58.4C203.734 58.4867 203.69 58.595 203.69 58.725V58.855C203.69 58.985 203.734 59.0933 203.82 59.18C203.907 59.2667 204.015 59.31 204.145 59.31H204.47ZM202.065 54.24C203.651 54.0667 205.081 53.98 206.355 53.98C206.945 53.98 207.417 54.1577 207.772 54.513C208.128 54.8683 208.305 55.3407 208.305 55.93V61H206.29L206.16 60.35C205.753 60.6187 205.333 60.818 204.899 60.948C204.475 61.0693 204.115 61.13 203.82 61.13H203.365C202.776 61.13 202.304 60.9523 201.948 60.597C201.593 60.2417 201.415 59.7693 201.415 59.18V58.595C201.415 58.0057 201.593 57.5333 201.948 57.178C202.304 56.8227 202.776 56.645 203.365 56.645H206.03V56.125C206.03 55.995 205.987 55.8867 205.9 55.8C205.814 55.7133 205.705 55.67 205.575 55.67C205.012 55.67 204.388 55.696 203.703 55.748C203.027 55.8 202.481 55.839 202.065 55.865V54.24ZM214.087 53.98C214.789 53.98 215.33 54.24 215.712 54.76C216.11 54.4913 216.539 54.2963 216.999 54.175C217.467 54.045 217.883 53.98 218.247 53.98H218.377C218.966 53.98 219.438 54.1577 219.794 54.513C220.149 54.8683 220.327 55.3407 220.327 55.93V61H218.052V56.32C218.052 56.19 218.008 56.0817 217.922 55.995C217.835 55.9083 217.727 55.865 217.597 55.865H217.532C217.142 55.865 216.643 55.9517 216.037 56.125V61H213.762V56.32C213.762 56.19 213.718 56.0817 213.632 55.995C213.545 55.9083 213.437 55.865 213.307 55.865H213.242C212.852 55.865 212.353 55.9517 211.747 56.125V61H209.472V54.11H211.487L211.617 54.76C212.024 54.4913 212.44 54.2963 212.865 54.175C213.298 54.045 213.662 53.98 213.957 53.98H214.087ZM224.159 55.605C223.813 55.605 223.639 55.7783 223.639 56.125V56.84H225.849V56.125C225.849 55.7783 225.676 55.605 225.329 55.605H224.159ZM227.864 60.87C226.192 61.0433 224.675 61.13 223.314 61.13C222.725 61.13 222.253 60.9523 221.897 60.597C221.542 60.2417 221.364 59.7693 221.364 59.18V56.06C221.364 55.41 221.546 54.903 221.91 54.539C222.283 54.1663 222.794 53.98 223.444 53.98H226.044C226.694 53.98 227.201 54.1663 227.565 54.539C227.938 54.903 228.124 55.41 228.124 56.06V58.465H223.639V58.985C223.639 59.115 223.683 59.2233 223.769 59.31C223.856 59.3967 223.964 59.44 224.094 59.44C224.952 59.44 226.209 59.375 227.864 59.245V60.87ZM229.029 59.05H231.369V60.87L230.459 62.3H229.289L229.809 61H229.029V59.05ZM242.29 51.9H244.63V58.53C244.63 59.44 244.422 60.103 244.006 60.519C243.598 60.9263 242.94 61.13 242.03 61.13H239.04C238.13 61.13 237.467 60.9263 237.051 60.519C236.643 60.103 236.44 59.44 236.44 58.53V51.9H238.78V58.53C238.78 59.05 239.04 59.31 239.56 59.31H241.51C242.03 59.31 242.29 59.05 242.29 58.53V51.9ZM249.895 55.865C249.435 55.865 248.915 55.9517 248.335 56.125V61H246.06V54.11H248.075L248.205 54.76C248.612 54.4913 249.028 54.2963 249.453 54.175C249.886 54.045 250.25 53.98 250.545 53.98H251.13C251.719 53.98 252.191 54.1577 252.547 54.513C252.902 54.8683 253.08 55.3407 253.08 55.93V61H250.805V56.32C250.805 56.19 250.761 56.0817 250.675 55.995C250.588 55.9083 250.48 55.865 250.35 55.865H249.895ZM257.108 54.37V61H254.833V56.125H253.858V54.37H257.108ZM254.833 51.77H257.108V53.59H254.833V51.77ZM263.222 61C262.382 61.0867 261.558 61.13 260.752 61.13C260.163 61.13 259.691 60.9523 259.335 60.597C258.98 60.2417 258.802 59.7693 258.802 59.18V55.865H258.022V54.11H258.802L259.062 52.55H261.077V54.11H262.702V55.865H261.077V58.855C261.077 58.985 261.121 59.0933 261.207 59.18C261.294 59.2667 261.402 59.31 261.532 59.31H263.222V61ZM266.676 55.605C266.329 55.605 266.156 55.7783 266.156 56.125V56.84H268.366V56.125C268.366 55.7783 268.193 55.605 267.846 55.605H266.676ZM270.381 60.87C268.708 61.0433 267.192 61.13 265.831 61.13C265.242 61.13 264.769 60.9523 264.414 60.597C264.059 60.2417 263.881 59.7693 263.881 59.18V56.06C263.881 55.41 264.063 54.903 264.427 54.539C264.8 54.1663 265.311 53.98 265.961 53.98H268.561C269.211 53.98 269.718 54.1663 270.082 54.539C270.455 54.903 270.641 55.41 270.641 56.06V58.465H266.156V58.985C266.156 59.115 266.199 59.2233 266.286 59.31C266.373 59.3967 266.481 59.44 266.611 59.44C267.469 59.44 268.726 59.375 270.381 59.245V60.87ZM274.793 51.9H277.263L279.408 56.32L281.553 51.9H284.023L280.578 58.595V61H278.238V58.595L274.793 51.9ZM290.785 59.05C290.785 59.7 290.598 60.2113 290.226 60.584C289.862 60.948 289.355 61.13 288.705 61.13H285.715C285.065 61.13 284.553 60.948 284.181 60.584C283.817 60.2113 283.635 59.7 283.635 59.05V56.06C283.635 55.41 283.817 54.903 284.181 54.539C284.553 54.1663 285.065 53.98 285.715 53.98H288.705C289.355 53.98 289.862 54.1663 290.226 54.539C290.598 54.903 290.785 55.41 290.785 56.06V59.05ZM288.51 56.255C288.51 55.9083 288.336 55.735 287.99 55.735H286.43C286.083 55.735 285.91 55.9083 285.91 56.255V58.855C285.91 59.2017 286.083 59.375 286.43 59.375H287.99C288.336 59.375 288.51 59.2017 288.51 58.855V56.255ZM295.138 59.245C295.598 59.245 296.118 59.1583 296.698 58.985V54.11H298.973V61H296.958L296.828 60.35C296.421 60.6187 296.001 60.818 295.567 60.948C295.143 61.0693 294.783 61.13 294.488 61.13H293.903C293.314 61.13 292.842 60.9523 292.486 60.597C292.131 60.2417 291.953 59.7693 291.953 59.18V54.11H294.228V58.79C294.228 58.92 294.272 59.0283 294.358 59.115C294.445 59.2017 294.553 59.245 294.683 59.245H295.138ZM304.234 55.995C303.688 55.995 303.124 56.125 302.544 56.385V61H300.269V54.11H302.284L302.414 54.955C303.159 54.305 303.939 53.98 304.754 53.98H305.339V55.995H304.234ZM314.696 61H312.356V53.72H309.626V51.9H317.426V53.72H314.696V61ZM320.225 55.605C319.878 55.605 319.705 55.7783 319.705 56.125V56.84H321.915V56.125C321.915 55.7783 321.741 55.605 321.395 55.605H320.225ZM323.93 60.87C322.257 61.0433 320.74 61.13 319.38 61.13C318.79 61.13 318.318 60.9523 317.963 60.597C317.607 60.2417 317.43 59.7693 317.43 59.18V56.06C317.43 55.41 317.612 54.903 317.976 54.539C318.348 54.1663 318.86 53.98 319.51 53.98H322.11C322.76 53.98 323.267 54.1663 323.631 54.539C324.003 54.903 324.19 55.41 324.19 56.06V58.465H319.705V58.985C319.705 59.115 319.748 59.2233 319.835 59.31C319.921 59.3967 320.03 59.44 320.16 59.44C321.018 59.44 322.274 59.375 323.93 59.245V60.87ZM328.085 59.31C328.544 59.31 329.064 59.2233 329.645 59.05V58.27H327.76C327.63 58.27 327.521 58.3133 327.435 58.4C327.348 58.4867 327.305 58.595 327.305 58.725V58.855C327.305 58.985 327.348 59.0933 327.435 59.18C327.521 59.2667 327.63 59.31 327.76 59.31H328.085ZM325.68 54.24C327.266 54.0667 328.696 53.98 329.97 53.98C330.559 53.98 331.031 54.1577 331.387 54.513C331.742 54.8683 331.92 55.3407 331.92 55.93V61H329.905L329.775 60.35C329.367 60.6187 328.947 60.818 328.514 60.948C328.089 61.0693 327.729 61.13 327.435 61.13H326.98C326.39 61.13 325.918 60.9523 325.563 60.597C325.207 60.2417 325.03 59.7693 325.03 59.18V58.595C325.03 58.0057 325.207 57.5333 325.563 57.178C325.918 56.8227 326.39 56.645 326.98 56.645H329.645V56.125C329.645 55.995 329.601 55.8867 329.515 55.8C329.428 55.7133 329.32 55.67 329.19 55.67C328.626 55.67 328.002 55.696 327.318 55.748C326.642 55.8 326.096 55.839 325.68 55.865V54.24ZM337.701 53.98C338.403 53.98 338.945 54.24 339.326 54.76C339.725 54.4913 340.154 54.2963 340.613 54.175C341.081 54.045 341.497 53.98 341.861 53.98H341.991C342.58 53.98 343.053 54.1577 343.408 54.513C343.763 54.8683 343.941 55.3407 343.941 55.93V61H341.666V56.32C341.666 56.19 341.623 56.0817 341.536 55.995C341.449 55.9083 341.341 55.865 341.211 55.865H341.146C340.756 55.865 340.258 55.9517 339.651 56.125V61H337.376V56.32C337.376 56.19 337.333 56.0817 337.246 55.995C337.159 55.9083 337.051 55.865 336.921 55.865H336.856C336.466 55.865 335.968 55.9517 335.361 56.125V61H333.086V54.11H335.101L335.231 54.76C335.638 54.4913 336.054 54.2963 336.479 54.175C336.912 54.045 337.276 53.98 337.571 53.98H337.701ZM345.108 59.05H347.448V61H345.108V59.05ZM345.368 58.27L345.108 55.54V51.9H347.448V55.54L347.188 58.27H345.368Z" fill="white"/>
</svg>
