<svg width="16" height="21" viewBox="0 0 16 21" fill="none" xmlns="http://www.w3.org/2000/svg">
<g id="Group">
<path id="Vector" d="M9.1001 10.5217L1.1876 2.14777C0.850099 1.7956 0.850099 1.24777 1.1876 0.8956C1.5251 0.543426 2.0501 0.543426 2.3876 0.8956L10.8626 9.8956C11.2001 10.2478 11.2001 10.7956 10.8626 11.1478L2.3876 20.1478C2.2376 20.3043 2.0126 20.4217 1.7876 20.4217C1.5626 20.4217 1.3751 20.3434 1.1876 20.1869C0.850099 19.8347 0.850099 19.2869 1.1876 18.9347L9.1001 10.5217Z" fill="#1C3FB7"/>
<path id="Vector_2" d="M13.9751 10.5217L6.0626 2.14777C5.7251 1.7956 5.7251 1.24777 6.0626 0.8956C6.4001 0.543426 6.9251 0.543426 7.2626 0.8956L15.7376 9.8956C16.0751 10.2478 16.0751 10.7956 15.7376 11.1478L7.2626 20.1478C7.1126 20.3043 6.8876 20.4217 6.6626 20.4217C6.4376 20.4217 6.2501 20.3434 6.0626 20.1869C5.7251 19.8347 5.7251 19.2869 6.0626 18.9347L13.9751 10.5217Z" fill="#1C3FB7"/>
</g>
</svg>
