<svg width="16" height="19" viewBox="0 0 16 19" fill="none" xmlns="http://www.w3.org/2000/svg">
<g id="Group">
<path id="Vector" d="M6.8999 9.5217L14.8124 1.4967C15.1499 1.1592 15.1499 0.634204 14.8124 0.296704C14.4749 -0.0407959 13.9499 -0.0407959 13.6124 0.296704L5.1374 8.9217C4.7999 9.2592 4.7999 9.7842 5.1374 10.1217L13.6124 18.7467C13.7624 18.8967 13.9874 19.0092 14.2124 19.0092C14.4374 19.0092 14.6249 18.9342 14.8124 18.7842C15.1499 18.4467 15.1499 17.9217 14.8124 17.5842L6.8999 9.5217Z" fill="#1C3FB7"/>
<path id="Vector_2" d="M2.0249 9.5217L9.9374 1.4967C10.2749 1.1592 10.2749 0.634204 9.9374 0.296704C9.5999 -0.0407959 9.0749 -0.0407959 8.7374 0.296704L0.262402 8.9217C-0.0750977 9.2592 -0.0750977 9.7842 0.262402 10.1217L8.7374 18.7467C8.8874 18.8967 9.1124 19.0092 9.3374 19.0092C9.5624 19.0092 9.7499 18.9342 9.9374 18.7842C10.2749 18.4467 10.2749 17.9217 9.9374 17.5842L2.0249 9.5217Z" fill="#1C3FB7"/>
</g>
</svg>
