<svg width="23" height="23" viewBox="0 0 23 23" fill="none" xmlns="http://www.w3.org/2000/svg">
<g id="Group">
<path id="Vector" d="M16.8 11.3625H11.8875V5.81249C11.8875 5.36249 11.5125 4.98749 11.0625 4.98749C10.6125 4.98749 10.2375 5.36249 10.2375 5.81249V12.225C10.2375 12.675 10.6125 13.05 11.0625 13.05H16.8C17.25 13.05 17.625 12.675 17.625 12.225C17.625 11.775 17.2875 11.3625 16.8 11.3625Z" fill="#485687"/>
<path id="Vector_2" d="M11.325 0C5.0625 0 0 5.1375 0 11.475C0 17.8125 5.0625 22.95 11.325 22.95C17.5875 22.95 22.65 17.8125 22.65 11.475C22.65 5.1375 17.5875 0 11.325 0ZM11.325 21.2625C6 21.2625 1.65 16.875 1.65 11.475C1.65 6.075 6 1.6875 11.325 1.6875C16.65 1.6875 21 6.075 21 11.475C21 16.875 16.65 21.2625 11.325 21.2625Z" fill="#485687"/>
</g>
</svg>
