<svg width="16" height="16" viewBox="0 0 16 16" fill="none" xmlns="http://www.w3.org/2000/svg">
<path stroke="#2D68F8" stroke-width="0.3px" d="M14 2.40002H2.00005C1.15005 2.40002 0.425049 3.10002 0.425049 3.97502V12.075C0.425049 12.925 1.12505 13.65 2.00005 13.65H14C14.85 13.65 15.575 12.95 15.575 12.075V3.95002C15.575 3.10002 14.85 2.40002 14 2.40002ZM14 3.52502C14.025 3.52502 14.05 3.52502 14.075 3.52502L8.00005 7.42502L1.92505 3.52502C1.95005 3.52502 1.97505 3.52502 2.00005 3.52502H14ZM14 12.475H2.00005C1.75005 12.475 1.55005 12.275 1.55005 12.025V4.62502L7.40005 8.37502C7.57505 8.50002 7.77505 8.55002 7.97505 8.55002C8.17505 8.55002 8.37505 8.50002 8.55005 8.37502L14.4 4.62502V12.05C14.45 12.3 14.25 12.475 14 12.475Z" fill="#2D68F8"/>
</svg>
