<svg width="31" height="28" viewBox="0 0 31 28" fill="none" xmlns="http://www.w3.org/2000/svg">
<g id="friends">
<path id="Vector" d="M27.5125 13.5625C26.4953 12.4687 25.2359 11.6812 23.8796 11.2C25.2359 10.3687 26.1078 8.96874 26.1078 7.34999C26.1078 4.76874 23.7828 2.71249 20.9734 2.71249C18.164 2.71249 15.7906 4.81249 15.7906 7.39374C15.7906 8.96874 16.6625 10.4125 18.0187 11.2437C16.6625 11.725 15.4031 12.5125 14.3859 13.6062C14.3375 13.65 14.3375 13.6937 14.289 13.6937C13.8531 13.475 13.4171 13.3 12.9812 13.125C14.3375 12.2937 15.2093 10.8937 15.2093 9.27499C15.2093 6.69374 12.8843 4.63749 10.075 4.63749C7.26558 4.63749 4.94058 6.73749 4.94058 9.27499C4.94058 10.85 5.81245 12.2937 7.1687 13.125C5.81245 13.6062 4.55308 14.3937 3.53589 15.4875C1.88901 17.2812 0.920264 19.7312 0.871826 22.4C0.871826 22.7937 1.11401 23.1437 1.45308 23.275C2.47026 23.7562 6.10308 25.2437 10.075 25.2437C14.3375 25.2437 17.7765 23.7125 18.7453 23.275C18.7937 23.275 18.7937 23.2312 18.8421 23.2312C19.5687 23.3187 20.2953 23.3625 20.9734 23.3625C25.1875 23.3625 28.675 21.8312 29.5953 21.3937C29.9343 21.2187 30.1765 20.8687 30.1765 20.5187C30.0796 17.85 29.1593 15.3562 27.5125 13.5625ZM20.925 4.68124C22.5718 4.68124 23.8796 5.90624 23.8796 7.34999C23.8796 8.79374 22.5718 10.0625 20.925 10.0625C19.2781 10.0625 17.9703 8.83749 17.9703 7.39374C17.9703 5.94999 19.2781 4.68124 20.925 4.68124ZM10.075 6.56249C11.7218 6.56249 13.0296 7.78749 13.0296 9.23124C13.0296 10.675 11.6734 11.9 10.075 11.9C8.47651 11.9 7.12026 10.675 7.12026 9.23124C7.12026 7.78749 8.42808 6.56249 10.075 6.56249ZM10.075 23.3187C7.1687 23.3187 4.35933 22.3562 3.05151 21.8312C3.19683 19.8625 3.97183 18.0687 5.18276 16.7562C6.49058 15.3562 8.23433 14.6125 10.075 14.6125C11.964 14.6125 13.6593 15.3562 14.9671 16.7562C16.1781 18.0687 16.9531 19.8625 17.0984 21.8312C15.8875 22.3562 13.175 23.3187 10.075 23.3187ZM20.925 21.4375C20.3921 21.4375 19.8109 21.3937 19.1812 21.3062C18.939 19.075 18.0187 17.0187 16.614 15.4875C16.4203 15.2687 16.2265 15.0937 15.9843 14.875C15.9843 14.875 15.9843 14.875 16.0328 14.8312C17.3406 13.4312 19.0359 12.6875 20.925 12.6875C22.814 12.6875 24.5093 13.4312 25.8171 14.8312C27.0281 16.1437 27.7546 17.9375 27.9484 19.9062C26.6406 20.475 24.025 21.4375 20.925 21.4375Z" fill="white"/>
</g>
</svg>
