<svg width="25" height="25" viewBox="0 0 25 25" fill="none" xmlns="http://www.w3.org/2000/svg">
<g id="icon/instagram">
<path id="vector" fill-rule="evenodd" clip-rule="evenodd" d="M12.5 3.04346C10.0556 3.04346 9.7496 3.05366 8.7896 3.09746C7.8314 3.14126 7.1768 3.29366 6.6044 3.51626C6.0044 3.74186 5.4602 4.09586 5.0102 4.55426C4.55253 5.00374 4.19831 5.54755 3.9722 6.14786C3.7508 6.72026 3.5978 7.37546 3.554 8.33366C3.5108 9.29306 3.5 9.59846 3.5 12.0435C3.5 14.4885 3.5102 14.7939 3.554 15.7539C3.5978 16.7121 3.7502 17.3667 3.9728 17.9391C4.1984 18.5391 4.5524 19.0833 5.0108 19.5333C5.46029 19.9909 6.00411 20.3451 6.6044 20.5713C7.1768 20.7933 7.8314 20.9457 8.7896 20.9895C9.7496 21.0333 10.0556 21.0435 12.5 21.0435C14.9444 21.0435 15.2504 21.0333 16.2104 20.9895C17.1686 20.9457 17.8232 20.7933 18.3956 20.5707C18.9956 20.3451 19.5398 19.9911 19.9898 19.5327C20.4475 19.0832 20.8017 18.5394 21.0278 17.9391C21.2498 17.3667 21.4022 16.7121 21.446 15.7539C21.4898 14.7939 21.5 14.4879 21.5 12.0435C21.5 9.59906 21.4898 9.29306 21.446 8.33306C21.4022 7.37486 21.2498 6.72026 21.0272 6.14786C20.8012 5.5473 20.447 5.00325 19.9892 4.55366C19.5397 4.09599 18.9959 3.74177 18.3956 3.51566C17.8232 3.29426 17.168 3.14126 16.2098 3.09746C15.2504 3.05426 14.945 3.04346 12.5 3.04346ZM12.5 4.66526C14.903 4.66526 15.188 4.67426 16.1372 4.71746C17.0144 4.75766 17.4908 4.90346 17.8082 5.02766C18.2282 5.19026 18.5282 5.38586 18.8432 5.70026C19.1582 6.01526 19.3532 6.31526 19.5158 6.73526C19.6394 7.05266 19.7858 7.52906 19.826 8.40626C19.8692 9.35546 19.8782 9.64046 19.8782 12.0435C19.8782 14.4465 19.8692 14.7315 19.826 15.6807C19.7858 16.5579 19.64 17.0343 19.5158 17.3517C19.3718 17.7426 19.1419 18.0963 18.8432 18.3867C18.5528 18.6854 18.1992 18.9153 17.8082 19.0593C17.4908 19.1829 17.0144 19.3293 16.1372 19.3695C15.188 19.4127 14.9036 19.4217 12.5 19.4217C10.0964 19.4217 9.812 19.4127 8.8628 19.3695C7.9856 19.3293 7.5092 19.1835 7.1918 19.0593C6.80087 18.9152 6.4472 18.6854 6.1568 18.3867C5.85811 18.0962 5.62828 17.7426 5.4842 17.3517C5.3606 17.0343 5.2142 16.5579 5.174 15.6807C5.1308 14.7315 5.1218 14.4465 5.1218 12.0435C5.1218 9.64046 5.1308 9.35546 5.174 8.40626C5.2142 7.52906 5.36 7.05266 5.4842 6.73526C5.6468 6.31526 5.8424 6.01526 6.1568 5.70026C6.44716 5.40148 6.80085 5.17164 7.1918 5.02766C7.5092 4.90406 7.9856 4.75766 8.8628 4.71746C9.812 4.67426 10.097 4.66526 12.5 4.66526Z" fill="black"/>
<path id="vector_2" fill-rule="evenodd" clip-rule="evenodd" d="M12.5 15.0465C12.1057 15.0465 11.7152 14.9688 11.3508 14.8179C10.9865 14.667 10.6554 14.4458 10.3766 14.1669C10.0977 13.8881 9.87653 13.557 9.72561 13.1927C9.5747 12.8283 9.49702 12.4378 9.49702 12.0435C9.49702 11.6491 9.5747 11.2586 9.72561 10.8943C9.87653 10.53 10.0977 10.1989 10.3766 9.92005C10.6554 9.64119 10.9865 9.41999 11.3508 9.26908C11.7152 9.11817 12.1057 9.04049 12.5 9.04049C13.2965 9.04049 14.0603 9.35688 14.6235 9.92005C15.1866 10.4832 15.503 11.247 15.503 12.0435C15.503 12.8399 15.1866 13.6038 14.6235 14.1669C14.0603 14.7301 13.2965 15.0465 12.5 15.0465ZM12.5 7.41749C11.2731 7.41749 10.0965 7.90487 9.22895 8.77241C8.3614 9.63996 7.87402 10.8166 7.87402 12.0435C7.87402 13.2704 8.3614 14.447 9.22895 15.3146C10.0965 16.1821 11.2731 16.6695 12.5 16.6695C13.7269 16.6695 14.9036 16.1821 15.7711 15.3146C16.6386 14.447 17.126 13.2704 17.126 12.0435C17.126 10.8166 16.6386 9.63996 15.7711 8.77241C14.9036 7.90487 13.7269 7.41749 12.5 7.41749ZM18.4718 7.33349C18.4718 7.6235 18.3566 7.90164 18.1515 8.10671C17.9465 8.31178 17.6683 8.42699 17.3783 8.42699C17.0883 8.42699 16.8102 8.31178 16.6051 8.10671C16.4 7.90164 16.2848 7.6235 16.2848 7.33349C16.2848 7.04348 16.4 6.76534 16.6051 6.56027C16.8102 6.3552 17.0883 6.23999 17.3783 6.23999C17.6683 6.23999 17.9465 6.3552 18.1515 6.56027C18.3566 6.76534 18.4718 7.04348 18.4718 7.33349Z" fill="black"/>
</g>
</svg>
