<svg width="396" height="113" viewBox="0 0 396 113" fill="none" xmlns="http://www.w3.org/2000/svg">
<g filter="url(#filter0_d)">
<mask id="path-1-outside-1_969_434" maskUnits="userSpaceOnUse" x="19" y="6" width="358" height="49" fill="black">
<rect fill="white" x="19" y="6" width="358" height="49"/>
<path d="M23.4748 42.3C34.4348 42.9 41.8548 43.2 45.7348 43.2C46.6548 43.2 47.3748 42.94 47.8948 42.42C48.4548 41.86 48.7348 41.12 48.7348 40.2V34.8H34.9348C30.7348 34.8 27.6748 33.86 25.7548 31.98C23.8748 30.06 22.9348 27 22.9348 22.8V21C22.9348 16.8 23.8748 13.76 25.7548 11.88C27.6748 9.96 30.7348 9 34.9348 9H55.9948V17.4H37.3348C34.9348 17.4 33.7348 18.6 33.7348 21V22.2C33.7348 24.6 34.9348 25.8 37.3348 25.8H48.1348C52.0548 25.8 54.9348 26.72 56.7748 28.56C58.6148 30.4 59.5348 33.28 59.5348 37.2V40.2C59.5348 44.12 58.6148 47 56.7748 48.84C54.9348 50.68 52.0548 51.6 48.1348 51.6C46.0948 51.6 43.9348 51.56 41.6548 51.48L36.1348 51.24C32.0548 51.04 27.8348 50.76 23.4748 50.4V42.3ZM58.3137 9H69.7137L79.6137 29.4L89.5137 9H100.914L85.0137 39.9V51H74.2137V39.9L58.3137 9ZM139.909 51H128.509L114.109 25.8V51H103.309V9H114.709L129.109 34.2V9H139.909V51ZM167.537 51H156.737V17.4H144.137V9H180.137V17.4H167.537V51ZM220.944 51H210.144V33.9H195.144V51H184.344V9H195.144V25.5H210.144V9H220.944V51ZM238.972 42.6H260.872V51H228.172V9H238.972V42.6ZM298.386 51H265.086V9H298.386V17.4H275.886V25.5H293.586V33.9H275.886V42.6H298.386V51ZM323.572 51H312.772V17.4H300.172V9H336.172V17.4H323.572V51ZM373.679 51H340.379V9H373.679V17.4H351.179V25.5H368.879V33.9H351.179V42.6H373.679V51Z"/>
</mask>
<path d="M23.4748 42.3C34.4348 42.9 41.8548 43.2 45.7348 43.2C46.6548 43.2 47.3748 42.94 47.8948 42.42C48.4548 41.86 48.7348 41.12 48.7348 40.2V34.8H34.9348C30.7348 34.8 27.6748 33.86 25.7548 31.98C23.8748 30.06 22.9348 27 22.9348 22.8V21C22.9348 16.8 23.8748 13.76 25.7548 11.88C27.6748 9.96 30.7348 9 34.9348 9H55.9948V17.4H37.3348C34.9348 17.4 33.7348 18.6 33.7348 21V22.2C33.7348 24.6 34.9348 25.8 37.3348 25.8H48.1348C52.0548 25.8 54.9348 26.72 56.7748 28.56C58.6148 30.4 59.5348 33.28 59.5348 37.2V40.2C59.5348 44.12 58.6148 47 56.7748 48.84C54.9348 50.68 52.0548 51.6 48.1348 51.6C46.0948 51.6 43.9348 51.56 41.6548 51.48L36.1348 51.24C32.0548 51.04 27.8348 50.76 23.4748 50.4V42.3ZM58.3137 9H69.7137L79.6137 29.4L89.5137 9H100.914L85.0137 39.9V51H74.2137V39.9L58.3137 9ZM139.909 51H128.509L114.109 25.8V51H103.309V9H114.709L129.109 34.2V9H139.909V51ZM167.537 51H156.737V17.4H144.137V9H180.137V17.4H167.537V51ZM220.944 51H210.144V33.9H195.144V51H184.344V9H195.144V25.5H210.144V9H220.944V51ZM238.972 42.6H260.872V51H228.172V9H238.972V42.6ZM298.386 51H265.086V9H298.386V17.4H275.886V25.5H293.586V33.9H275.886V42.6H298.386V51ZM323.572 51H312.772V17.4H300.172V9H336.172V17.4H323.572V51ZM373.679 51H340.379V9H373.679V17.4H351.179V25.5H368.879V33.9H351.179V42.6H373.679V51Z" fill="#1C3FB7"/>
<path d="M23.4748 42.3L23.6388 39.3045L20.4748 39.1313V42.3H23.4748ZM47.8948 42.42L45.7734 40.2987L45.7734 40.2987L47.8948 42.42ZM48.7348 34.8H51.7348V31.8H48.7348V34.8ZM25.7548 31.98L23.6112 34.0789L23.6333 34.1014L23.6559 34.1235L25.7548 31.98ZM25.7548 11.88L27.8761 14.0013L27.8761 14.0013L25.7548 11.88ZM55.9948 9H58.9948V6H55.9948V9ZM55.9948 17.4V20.4H58.9948V17.4H55.9948ZM56.7748 48.84L54.6534 46.7187L54.6534 46.7187L56.7748 48.84ZM41.6548 51.48L41.5245 54.4772L41.537 54.4777L41.5496 54.4782L41.6548 51.48ZM36.1348 51.24L35.9879 54.2364L35.9962 54.2368L36.0045 54.2372L36.1348 51.24ZM23.4748 50.4H20.4748V53.1625L23.2279 53.3898L23.4748 50.4ZM23.3108 45.2955C34.2607 45.895 41.7603 46.2 45.7348 46.2V40.2C41.9493 40.2 34.6088 39.905 23.6388 39.3045L23.3108 45.2955ZM45.7348 46.2C47.2395 46.2 48.8001 45.7573 50.0161 44.5413L45.7734 40.2987C45.8013 40.2708 45.8344 40.2442 45.8699 40.2219C45.9051 40.1998 45.9326 40.1881 45.9458 40.1833C45.971 40.1742 45.9155 40.2 45.7348 40.2V46.2ZM50.0161 44.5413C51.2299 43.3275 51.7348 41.7766 51.7348 40.2H45.7348C45.7348 40.3553 45.7115 40.4029 45.7189 40.3833C45.7223 40.3744 45.7298 40.3577 45.7425 40.3381C45.7552 40.3185 45.7671 40.305 45.7734 40.2987L50.0161 44.5413ZM51.7348 40.2V34.8H45.7348V40.2H51.7348ZM48.7348 31.8H34.9348V37.8H48.7348V31.8ZM34.9348 31.8C31.0915 31.8 28.9676 30.9272 27.8536 29.8365L23.6559 34.1235C26.382 36.7928 30.378 37.8 34.9348 37.8V31.8ZM27.8983 29.8811C26.8076 28.7672 25.9348 26.6433 25.9348 22.8H19.9348C19.9348 27.3567 20.942 31.3528 23.6112 34.0789L27.8983 29.8811ZM25.9348 22.8V21H19.9348V22.8H25.9348ZM25.9348 21C25.9348 17.1494 26.8106 15.0668 27.8761 14.0013L23.6334 9.75868C20.9389 12.4532 19.9348 16.4506 19.9348 21H25.9348ZM27.8761 14.0013C28.9913 12.8861 31.1058 12 34.9348 12V6C30.3637 6 26.3582 7.03393 23.6334 9.75868L27.8761 14.0013ZM34.9348 12H55.9948V6H34.9348V12ZM52.9948 9V17.4H58.9948V9H52.9948ZM55.9948 14.4H37.3348V20.4H55.9948V14.4ZM37.3348 14.4C35.6723 14.4 33.8745 14.8176 32.5134 16.1787C31.1524 17.5397 30.7348 19.3376 30.7348 21H36.7348C36.7348 20.2624 36.9171 20.2603 36.7561 20.4213C36.595 20.5824 36.5972 20.4 37.3348 20.4V14.4ZM30.7348 21V22.2H36.7348V21H30.7348ZM30.7348 22.2C30.7348 23.8624 31.1524 25.6603 32.5134 27.0213C33.8745 28.3824 35.6723 28.8 37.3348 28.8V22.8C36.5972 22.8 36.595 22.6176 36.7561 22.7787C36.9171 22.9397 36.7348 22.9376 36.7348 22.2H30.7348ZM37.3348 28.8H48.1348V22.8H37.3348V28.8ZM48.1348 28.8C51.6566 28.8 53.6056 29.6335 54.6534 30.6813L58.8961 26.4387C56.2639 23.8065 52.4529 22.8 48.1348 22.8V28.8ZM54.6534 30.6813C55.7013 31.7291 56.5348 33.6781 56.5348 37.2H62.5348C62.5348 32.8819 61.5283 29.0709 58.8961 26.4387L54.6534 30.6813ZM56.5348 37.2V40.2H62.5348V37.2H56.5348ZM56.5348 40.2C56.5348 43.7219 55.7013 45.6709 54.6534 46.7187L58.8961 50.9613C61.5283 48.3291 62.5348 44.5181 62.5348 40.2H56.5348ZM54.6534 46.7187C53.6056 47.7665 51.6566 48.6 48.1348 48.6V54.6C52.4529 54.6 56.2639 53.5935 58.8961 50.9613L54.6534 46.7187ZM48.1348 48.6C46.1337 48.6 44.0089 48.5608 41.76 48.4818L41.5496 54.4782C43.8606 54.5592 46.0559 54.6 48.1348 54.6V48.6ZM41.7851 48.4828L36.2651 48.2428L36.0045 54.2372L41.5245 54.4772L41.7851 48.4828ZM36.2816 48.2436C32.2373 48.0453 28.0507 47.7676 23.7216 47.4102L23.2279 53.3898C27.6189 53.7524 31.8723 54.0347 35.9879 54.2364L36.2816 48.2436ZM26.4748 50.4V42.3H20.4748V50.4H26.4748ZM58.3137 9V6H53.3961L55.6461 10.3726L58.3137 9ZM69.7137 9L72.4126 7.6902L71.5924 6H69.7137V9ZM79.6137 29.4L76.9147 30.7098L79.6137 36.2713L82.3126 30.7098L79.6137 29.4ZM89.5137 9V6H87.6349L86.8147 7.6902L89.5137 9ZM100.914 9L103.581 10.3726L105.831 6H100.914V9ZM85.0137 39.9L82.3461 38.5274L82.0137 39.1734V39.9H85.0137ZM85.0137 51V54H88.0137V51H85.0137ZM74.2137 51H71.2137V54H74.2137V51ZM74.2137 39.9H77.2137V39.1734L76.8812 38.5274L74.2137 39.9ZM58.3137 12H69.7137V6H58.3137V12ZM67.0147 10.3098L76.9147 30.7098L82.3126 28.0902L72.4126 7.6902L67.0147 10.3098ZM82.3126 30.7098L92.2126 10.3098L86.8147 7.6902L76.9147 28.0902L82.3126 30.7098ZM89.5137 12H100.914V6H89.5137V12ZM98.2461 7.62737L82.3461 38.5274L87.6812 41.2726L103.581 10.3726L98.2461 7.62737ZM82.0137 39.9V51H88.0137V39.9H82.0137ZM85.0137 48H74.2137V54H85.0137V48ZM77.2137 51V39.9H71.2137V51H77.2137ZM76.8812 38.5274L60.9812 7.62737L55.6461 10.3726L71.5461 41.2726L76.8812 38.5274ZM139.909 51V54H142.909V51H139.909ZM128.509 51L125.904 52.4884L126.768 54H128.509V51ZM114.109 25.8L116.714 24.3116L111.109 14.5033V25.8H114.109ZM114.109 51V54H117.109V51H114.109ZM103.309 51H100.309V54H103.309V51ZM103.309 9V6H100.309V9H103.309ZM114.709 9L117.314 7.51158L116.45 6H114.709V9ZM129.109 34.2L126.504 35.6884L132.109 45.4967V34.2H129.109ZM129.109 9V6H126.109V9H129.109ZM139.909 9H142.909V6H139.909V9ZM139.909 48H128.509V54H139.909V48ZM131.114 49.5116L116.714 24.3116L111.504 27.2884L125.904 52.4884L131.114 49.5116ZM111.109 25.8V51H117.109V25.8H111.109ZM114.109 48H103.309V54H114.109V48ZM106.309 51V9H100.309V51H106.309ZM103.309 12H114.709V6H103.309V12ZM112.104 10.4884L126.504 35.6884L131.714 32.7116L117.314 7.51158L112.104 10.4884ZM132.109 34.2V9H126.109V34.2H132.109ZM129.109 12H139.909V6H129.109V12ZM136.909 9V51H142.909V9H136.909ZM167.537 51V54H170.537V51H167.537ZM156.737 51H153.737V54H156.737V51ZM156.737 17.4H159.737V14.4H156.737V17.4ZM144.137 17.4H141.137V20.4H144.137V17.4ZM144.137 9V6H141.137V9H144.137ZM180.137 9H183.137V6H180.137V9ZM180.137 17.4V20.4H183.137V17.4H180.137ZM167.537 17.4V14.4H164.537V17.4H167.537ZM167.537 48H156.737V54H167.537V48ZM159.737 51V17.4H153.737V51H159.737ZM156.737 14.4H144.137V20.4H156.737V14.4ZM147.137 17.4V9H141.137V17.4H147.137ZM144.137 12H180.137V6H144.137V12ZM177.137 9V17.4H183.137V9H177.137ZM180.137 14.4H167.537V20.4H180.137V14.4ZM164.537 17.4V51H170.537V17.4H164.537ZM220.944 51V54H223.944V51H220.944ZM210.144 51H207.144V54H210.144V51ZM210.144 33.9H213.144V30.9H210.144V33.9ZM195.144 33.9V30.9H192.144V33.9H195.144ZM195.144 51V54H198.144V51H195.144ZM184.344 51H181.344V54H184.344V51ZM184.344 9V6H181.344V9H184.344ZM195.144 9H198.144V6H195.144V9ZM195.144 25.5H192.144V28.5H195.144V25.5ZM210.144 25.5V28.5H213.144V25.5H210.144ZM210.144 9V6H207.144V9H210.144ZM220.944 9H223.944V6H220.944V9ZM220.944 48H210.144V54H220.944V48ZM213.144 51V33.9H207.144V51H213.144ZM210.144 30.9H195.144V36.9H210.144V30.9ZM192.144 33.9V51H198.144V33.9H192.144ZM195.144 48H184.344V54H195.144V48ZM187.344 51V9H181.344V51H187.344ZM184.344 12H195.144V6H184.344V12ZM192.144 9V25.5H198.144V9H192.144ZM195.144 28.5H210.144V22.5H195.144V28.5ZM213.144 25.5V9H207.144V25.5H213.144ZM210.144 12H220.944V6H210.144V12ZM217.944 9V51H223.944V9H217.944ZM238.972 42.6H235.972V45.6H238.972V42.6ZM260.872 42.6H263.872V39.6H260.872V42.6ZM260.872 51V54H263.872V51H260.872ZM228.172 51H225.172V54H228.172V51ZM228.172 9V6H225.172V9H228.172ZM238.972 9H241.972V6H238.972V9ZM238.972 45.6H260.872V39.6H238.972V45.6ZM257.872 42.6V51H263.872V42.6H257.872ZM260.872 48H228.172V54H260.872V48ZM231.172 51V9H225.172V51H231.172ZM228.172 12H238.972V6H228.172V12ZM235.972 9V42.6H241.972V9H235.972ZM298.386 51V54H301.386V51H298.386ZM265.086 51H262.086V54H265.086V51ZM265.086 9V6H262.086V9H265.086ZM298.386 9H301.386V6H298.386V9ZM298.386 17.4V20.4H301.386V17.4H298.386ZM275.886 17.4V14.4H272.886V17.4H275.886ZM275.886 25.5H272.886V28.5H275.886V25.5ZM293.586 25.5H296.586V22.5H293.586V25.5ZM293.586 33.9V36.9H296.586V33.9H293.586ZM275.886 33.9V30.9H272.886V33.9H275.886ZM275.886 42.6H272.886V45.6H275.886V42.6ZM298.386 42.6H301.386V39.6H298.386V42.6ZM298.386 48H265.086V54H298.386V48ZM268.086 51V9H262.086V51H268.086ZM265.086 12H298.386V6H265.086V12ZM295.386 9V17.4H301.386V9H295.386ZM298.386 14.4H275.886V20.4H298.386V14.4ZM272.886 17.4V25.5H278.886V17.4H272.886ZM275.886 28.5H293.586V22.5H275.886V28.5ZM290.586 25.5V33.9H296.586V25.5H290.586ZM293.586 30.9H275.886V36.9H293.586V30.9ZM272.886 33.9V42.6H278.886V33.9H272.886ZM275.886 45.6H298.386V39.6H275.886V45.6ZM295.386 42.6V51H301.386V42.6H295.386ZM323.572 51V54H326.572V51H323.572ZM312.772 51H309.772V54H312.772V51ZM312.772 17.4H315.772V14.4H312.772V17.4ZM300.172 17.4H297.172V20.4H300.172V17.4ZM300.172 9V6H297.172V9H300.172ZM336.172 9H339.172V6H336.172V9ZM336.172 17.4V20.4H339.172V17.4H336.172ZM323.572 17.4V14.4H320.572V17.4H323.572ZM323.572 48H312.772V54H323.572V48ZM315.772 51V17.4H309.772V51H315.772ZM312.772 14.4H300.172V20.4H312.772V14.4ZM303.172 17.4V9H297.172V17.4H303.172ZM300.172 12H336.172V6H300.172V12ZM333.172 9V17.4H339.172V9H333.172ZM336.172 14.4H323.572V20.4H336.172V14.4ZM320.572 17.4V51H326.572V17.4H320.572ZM373.679 51V54H376.679V51H373.679ZM340.379 51H337.379V54H340.379V51ZM340.379 9V6H337.379V9H340.379ZM373.679 9H376.679V6H373.679V9ZM373.679 17.4V20.4H376.679V17.4H373.679ZM351.179 17.4V14.4H348.179V17.4H351.179ZM351.179 25.5H348.179V28.5H351.179V25.5ZM368.879 25.5H371.879V22.5H368.879V25.5ZM368.879 33.9V36.9H371.879V33.9H368.879ZM351.179 33.9V30.9H348.179V33.9H351.179ZM351.179 42.6H348.179V45.6H351.179V42.6ZM373.679 42.6H376.679V39.6H373.679V42.6ZM373.679 48H340.379V54H373.679V48ZM343.379 51V9H337.379V51H343.379ZM340.379 12H373.679V6H340.379V12ZM370.679 9V17.4H376.679V9H370.679ZM373.679 14.4H351.179V20.4H373.679V14.4ZM348.179 17.4V25.5H354.179V17.4H348.179ZM351.179 28.5H368.879V22.5H351.179V28.5ZM365.879 25.5V33.9H371.879V25.5H365.879ZM368.879 30.9H351.179V36.9H368.879V30.9ZM348.179 33.9V42.6H354.179V33.9H348.179ZM351.179 45.6H373.679V39.6H351.179V45.6ZM370.679 42.6V51H376.679V42.6H370.679Z" fill="white" mask="url(#path-1-outside-1_969_434)"/>
</g>
<path d="M133.162 67H125.947V57.9H133.162V59.72H128.287V61.475H132.122V63.295H128.287V65.18H133.162V67ZM137.579 67C136.998 67.0867 136.444 67.13 135.915 67.13C135.395 67.13 134.957 66.9523 134.602 66.597C134.247 66.2417 134.069 65.7693 134.069 65.18V57.9H136.344V64.855C136.344 64.985 136.387 65.0933 136.474 65.18C136.561 65.2667 136.669 65.31 136.799 65.31H137.579V67ZM141.152 61.605C140.805 61.605 140.632 61.7783 140.632 62.125V62.84H142.842V62.125C142.842 61.7783 142.669 61.605 142.322 61.605H141.152ZM144.857 66.87C143.184 67.0433 141.668 67.13 140.307 67.13C139.718 67.13 139.245 66.9523 138.89 66.597C138.535 66.2417 138.357 65.7693 138.357 65.18V62.06C138.357 61.41 138.539 60.903 138.903 60.539C139.276 60.1663 139.787 59.98 140.437 59.98H143.037C143.687 59.98 144.194 60.1663 144.558 60.539C144.931 60.903 145.117 61.41 145.117 62.06V64.465H140.632V64.985C140.632 65.115 140.675 65.2233 140.762 65.31C140.849 65.3967 140.957 65.44 141.087 65.44C141.945 65.44 143.202 65.375 144.857 65.245V66.87ZM150.77 60.11H153.175L150.575 67H147.975L145.375 60.11H147.78L149.275 64.79L150.77 60.11ZM156.172 65.31C156.632 65.31 157.152 65.2233 157.732 65.05V64.27H155.847C155.717 64.27 155.609 64.3133 155.522 64.4C155.436 64.4867 155.392 64.595 155.392 64.725V64.855C155.392 64.985 155.436 65.0933 155.522 65.18C155.609 65.2667 155.717 65.31 155.847 65.31H156.172ZM153.767 60.24C155.353 60.0667 156.783 59.98 158.057 59.98C158.647 59.98 159.119 60.1577 159.474 60.513C159.83 60.8683 160.007 61.3407 160.007 61.93V67H157.992L157.862 66.35C157.455 66.6187 157.035 66.818 156.601 66.948C156.177 67.0693 155.817 67.13 155.522 67.13H155.067C154.478 67.13 154.006 66.9523 153.65 66.597C153.295 66.2417 153.117 65.7693 153.117 65.18V64.595C153.117 64.0057 153.295 63.5333 153.65 63.178C154.006 62.8227 154.478 62.645 155.067 62.645H157.732V62.125C157.732 61.995 157.689 61.8867 157.602 61.8C157.516 61.7133 157.407 61.67 157.277 61.67C156.714 61.67 156.09 61.696 155.405 61.748C154.729 61.8 154.183 61.839 153.767 61.865V60.24ZM165.984 67C165.143 67.0867 164.32 67.13 163.514 67.13C162.924 67.13 162.452 66.9523 162.097 66.597C161.741 66.2417 161.564 65.7693 161.564 65.18V61.865H160.784V60.11H161.564L161.824 58.55H163.839V60.11H165.464V61.865H163.839V64.855C163.839 64.985 163.882 65.0933 163.969 65.18C164.055 65.2667 164.164 65.31 164.294 65.31H165.984V67ZM169.437 61.605C169.091 61.605 168.917 61.7783 168.917 62.125V62.84H171.127V62.125C171.127 61.7783 170.954 61.605 170.607 61.605H169.437ZM173.142 66.87C171.47 67.0433 169.953 67.13 168.592 67.13C168.003 67.13 167.531 66.9523 167.175 66.597C166.82 66.2417 166.642 65.7693 166.642 65.18V62.06C166.642 61.41 166.824 60.903 167.188 60.539C167.561 60.1663 168.072 59.98 168.722 59.98H171.322C171.972 59.98 172.479 60.1663 172.843 60.539C173.216 60.903 173.402 61.41 173.402 62.06V64.465H168.917V64.985C168.917 65.115 168.961 65.2233 169.047 65.31C169.134 65.3967 169.242 65.44 169.372 65.44C170.23 65.44 171.487 65.375 173.142 65.245V66.87ZM177.555 57.9H180.025L182.17 62.32L184.315 57.9H186.785L183.34 64.595V67H181V64.595L177.555 57.9ZM193.546 65.05C193.546 65.7 193.36 66.2113 192.987 66.584C192.623 66.948 192.116 67.13 191.466 67.13H188.476C187.826 67.13 187.315 66.948 186.942 66.584C186.578 66.2113 186.396 65.7 186.396 65.05V62.06C186.396 61.41 186.578 60.903 186.942 60.539C187.315 60.1663 187.826 59.98 188.476 59.98H191.466C192.116 59.98 192.623 60.1663 192.987 60.539C193.36 60.903 193.546 61.41 193.546 62.06V65.05ZM191.271 62.255C191.271 61.9083 191.098 61.735 190.751 61.735H189.191C188.844 61.735 188.671 61.9083 188.671 62.255V64.855C188.671 65.2017 188.844 65.375 189.191 65.375H190.751C191.098 65.375 191.271 65.2017 191.271 64.855V62.255ZM197.9 65.245C198.359 65.245 198.879 65.1583 199.46 64.985V60.11H201.735V67H199.72L199.59 66.35C199.182 66.6187 198.762 66.818 198.329 66.948C197.904 67.0693 197.544 67.13 197.25 67.13H196.665C196.075 67.13 195.603 66.9523 195.248 66.597C194.892 66.2417 194.715 65.7693 194.715 65.18V60.11H196.99V64.79C196.99 64.92 197.033 65.0283 197.12 65.115C197.206 65.2017 197.315 65.245 197.445 65.245H197.9ZM206.995 61.995C206.449 61.995 205.886 62.125 205.305 62.385V67H203.03V60.11H205.045L205.175 60.955C205.92 60.305 206.7 59.98 207.515 59.98H208.1V61.995H206.995ZM220.837 66.805C218.809 67.0217 216.946 67.13 215.247 67.13C214.398 67.13 213.774 66.9307 213.375 66.532C212.976 66.1333 212.777 65.5093 212.777 64.66V60.5C212.777 59.59 212.981 58.9313 213.388 58.524C213.804 58.108 214.467 57.9 215.377 57.9H220.057V59.72H215.897C215.377 59.72 215.117 59.98 215.117 60.5V64.66C215.117 64.8593 215.173 65.0197 215.286 65.141C215.407 65.2537 215.568 65.31 215.767 65.31C216.764 65.31 217.674 65.2883 218.497 65.245V63.36H216.807V61.8H220.837V66.805ZM224.74 65.31C225.199 65.31 225.719 65.2233 226.3 65.05V64.27H224.415C224.285 64.27 224.176 64.3133 224.09 64.4C224.003 64.4867 223.96 64.595 223.96 64.725V64.855C223.96 64.985 224.003 65.0933 224.09 65.18C224.176 65.2667 224.285 65.31 224.415 65.31H224.74ZM222.335 60.24C223.921 60.0667 225.351 59.98 226.625 59.98C227.214 59.98 227.686 60.1577 228.042 60.513C228.397 60.8683 228.575 61.3407 228.575 61.93V67H226.56L226.43 66.35C226.022 66.6187 225.602 66.818 225.169 66.948C224.744 67.0693 224.384 67.13 224.09 67.13H223.635C223.045 67.13 222.573 66.9523 222.218 66.597C221.862 66.2417 221.685 65.7693 221.685 65.18V64.595C221.685 64.0057 221.862 63.5333 222.218 63.178C222.573 62.8227 223.045 62.645 223.635 62.645H226.3V62.125C226.3 61.995 226.256 61.8867 226.17 61.8C226.083 61.7133 225.975 61.67 225.845 61.67C225.281 61.67 224.657 61.696 223.973 61.748C223.297 61.8 222.751 61.839 222.335 61.865V60.24ZM234.356 59.98C235.058 59.98 235.6 60.24 235.981 60.76C236.38 60.4913 236.809 60.2963 237.268 60.175C237.736 60.045 238.152 59.98 238.516 59.98H238.646C239.235 59.98 239.708 60.1577 240.063 60.513C240.418 60.8683 240.596 61.3407 240.596 61.93V67H238.321V62.32C238.321 62.19 238.278 62.0817 238.191 61.995C238.104 61.9083 237.996 61.865 237.866 61.865H237.801C237.411 61.865 236.913 61.9517 236.306 62.125V67H234.031V62.32C234.031 62.19 233.988 62.0817 233.901 61.995C233.814 61.9083 233.706 61.865 233.576 61.865H233.511C233.121 61.865 232.623 61.9517 232.016 62.125V67H229.741V60.11H231.756L231.886 60.76C232.293 60.4913 232.709 60.2963 233.134 60.175C233.567 60.045 233.931 59.98 234.226 59.98H234.356ZM244.428 61.605C244.082 61.605 243.908 61.7783 243.908 62.125V62.84H246.118V62.125C246.118 61.7783 245.945 61.605 245.598 61.605H244.428ZM248.133 66.87C246.461 67.0433 244.944 67.13 243.583 67.13C242.994 67.13 242.522 66.9523 242.166 66.597C241.811 66.2417 241.633 65.7693 241.633 65.18V62.06C241.633 61.41 241.815 60.903 242.179 60.539C242.552 60.1663 243.063 59.98 243.713 59.98H246.313C246.963 59.98 247.47 60.1663 247.834 60.539C248.207 60.903 248.393 61.41 248.393 62.06V64.465H243.908V64.985C243.908 65.115 243.952 65.2233 244.038 65.31C244.125 65.3967 244.233 65.44 244.363 65.44C245.221 65.44 246.478 65.375 248.133 65.245V66.87ZM249.298 65.05H251.638V66.87L250.728 68.3H249.558L250.078 67H249.298V65.05ZM262.559 57.9H264.899V64.53C264.899 65.44 264.691 66.103 264.275 66.519C263.868 66.9263 263.209 67.13 262.299 67.13H259.309C258.399 67.13 257.736 66.9263 257.32 66.519C256.913 66.103 256.709 65.44 256.709 64.53V57.9H259.049V64.53C259.049 65.05 259.309 65.31 259.829 65.31H261.779C262.299 65.31 262.559 65.05 262.559 64.53V57.9ZM270.164 61.865C269.705 61.865 269.185 61.9517 268.604 62.125V67H266.329V60.11H268.344L268.474 60.76C268.881 60.4913 269.297 60.2963 269.722 60.175C270.155 60.045 270.519 59.98 270.814 59.98H271.399C271.988 59.98 272.461 60.1577 272.816 60.513C273.171 60.8683 273.349 61.3407 273.349 61.93V67H271.074V62.32C271.074 62.19 271.031 62.0817 270.944 61.995C270.857 61.9083 270.749 61.865 270.619 61.865H270.164ZM277.377 60.37V67H275.102V62.125H274.127V60.37H277.377ZM275.102 57.77H277.377V59.59H275.102V57.77ZM283.491 67C282.651 67.0867 281.827 67.13 281.021 67.13C280.432 67.13 279.96 66.9523 279.604 66.597C279.249 66.2417 279.071 65.7693 279.071 65.18V61.865H278.291V60.11H279.071L279.331 58.55H281.346V60.11H282.971V61.865H281.346V64.855C281.346 64.985 281.39 65.0933 281.476 65.18C281.563 65.2667 281.671 65.31 281.801 65.31H283.491V67ZM286.945 61.605C286.598 61.605 286.425 61.7783 286.425 62.125V62.84H288.635V62.125C288.635 61.7783 288.462 61.605 288.115 61.605H286.945ZM290.65 66.87C288.977 67.0433 287.461 67.13 286.1 67.13C285.511 67.13 285.038 66.9523 284.683 66.597C284.328 66.2417 284.15 65.7693 284.15 65.18V62.06C284.15 61.41 284.332 60.903 284.696 60.539C285.069 60.1663 285.58 59.98 286.23 59.98H288.83C289.48 59.98 289.987 60.1663 290.351 60.539C290.724 60.903 290.91 61.41 290.91 62.06V64.465H286.425V64.985C286.425 65.115 286.468 65.2233 286.555 65.31C286.642 65.3967 286.75 65.44 286.88 65.44C287.738 65.44 288.995 65.375 290.65 65.245V66.87ZM295.062 57.9H297.532L299.677 62.32L301.822 57.9H304.292L300.847 64.595V67H298.507V64.595L295.062 57.9ZM311.054 65.05C311.054 65.7 310.868 66.2113 310.495 66.584C310.131 66.948 309.624 67.13 308.974 67.13H305.984C305.334 67.13 304.823 66.948 304.45 66.584C304.086 66.2113 303.904 65.7 303.904 65.05V62.06C303.904 61.41 304.086 60.903 304.45 60.539C304.823 60.1663 305.334 59.98 305.984 59.98H308.974C309.624 59.98 310.131 60.1663 310.495 60.539C310.868 60.903 311.054 61.41 311.054 62.06V65.05ZM308.779 62.255C308.779 61.9083 308.606 61.735 308.259 61.735H306.699C306.352 61.735 306.179 61.9083 306.179 62.255V64.855C306.179 65.2017 306.352 65.375 306.699 65.375H308.259C308.606 65.375 308.779 65.2017 308.779 64.855V62.255ZM315.407 65.245C315.867 65.245 316.387 65.1583 316.967 64.985V60.11H319.242V67H317.227L317.097 66.35C316.69 66.6187 316.27 66.818 315.836 66.948C315.412 67.0693 315.052 67.13 314.757 67.13H314.172C313.583 67.13 313.111 66.9523 312.755 66.597C312.4 66.2417 312.222 65.7693 312.222 65.18V60.11H314.497V64.79C314.497 64.92 314.541 65.0283 314.627 65.115C314.714 65.2017 314.822 65.245 314.952 65.245H315.407ZM324.503 61.995C323.957 61.995 323.394 62.125 322.813 62.385V67H320.538V60.11H322.553L322.683 60.955C323.428 60.305 324.208 59.98 325.023 59.98H325.608V61.995H324.503ZM334.965 67H332.625V59.72H329.895V57.9H337.695V59.72H334.965V67ZM340.494 61.605C340.147 61.605 339.974 61.7783 339.974 62.125V62.84H342.184V62.125C342.184 61.7783 342.011 61.605 341.664 61.605H340.494ZM344.199 66.87C342.526 67.0433 341.01 67.13 339.649 67.13C339.06 67.13 338.587 66.9523 338.232 66.597C337.877 66.2417 337.699 65.7693 337.699 65.18V62.06C337.699 61.41 337.881 60.903 338.245 60.539C338.618 60.1663 339.129 59.98 339.779 59.98H342.379C343.029 59.98 343.536 60.1663 343.9 60.539C344.273 60.903 344.459 61.41 344.459 62.06V64.465H339.974V64.985C339.974 65.115 340.017 65.2233 340.104 65.31C340.191 65.3967 340.299 65.44 340.429 65.44C341.287 65.44 342.544 65.375 344.199 65.245V66.87ZM348.354 65.31C348.813 65.31 349.333 65.2233 349.914 65.05V64.27H348.029C347.899 64.27 347.79 64.3133 347.704 64.4C347.617 64.4867 347.574 64.595 347.574 64.725V64.855C347.574 64.985 347.617 65.0933 347.704 65.18C347.79 65.2667 347.899 65.31 348.029 65.31H348.354ZM345.949 60.24C347.535 60.0667 348.965 59.98 350.239 59.98C350.828 59.98 351.3 60.1577 351.656 60.513C352.011 60.8683 352.189 61.3407 352.189 61.93V67H350.174L350.044 66.35C349.636 66.6187 349.216 66.818 348.783 66.948C348.358 67.0693 347.998 67.13 347.704 67.13H347.249C346.659 67.13 346.187 66.9523 345.832 66.597C345.476 66.2417 345.299 65.7693 345.299 65.18V64.595C345.299 64.0057 345.476 63.5333 345.832 63.178C346.187 62.8227 346.659 62.645 347.249 62.645H349.914V62.125C349.914 61.995 349.87 61.8867 349.784 61.8C349.697 61.7133 349.589 61.67 349.459 61.67C348.895 61.67 348.271 61.696 347.587 61.748C346.911 61.8 346.365 61.839 345.949 61.865V60.24ZM357.97 59.98C358.672 59.98 359.214 60.24 359.595 60.76C359.994 60.4913 360.423 60.2963 360.882 60.175C361.35 60.045 361.766 59.98 362.13 59.98H362.26C362.85 59.98 363.322 60.1577 363.677 60.513C364.033 60.8683 364.21 61.3407 364.21 61.93V67H361.935V62.32C361.935 62.19 361.892 62.0817 361.805 61.995C361.719 61.9083 361.61 61.865 361.48 61.865H361.415C361.025 61.865 360.527 61.9517 359.92 62.125V67H357.645V62.32C357.645 62.19 357.602 62.0817 357.515 61.995C357.429 61.9083 357.32 61.865 357.19 61.865H357.125C356.735 61.865 356.237 61.9517 355.63 62.125V67H353.355V60.11H355.37L355.5 60.76C355.908 60.4913 356.324 60.2963 356.748 60.175C357.182 60.045 357.546 59.98 357.84 59.98H357.97ZM365.378 65.05H367.718V67H365.378V65.05ZM365.638 64.27L365.378 61.54V57.9H367.718V61.54L367.458 64.27H365.638Z" fill="#1C3FB7"/>
<defs>
<filter id="filter0_di_969_434" x="18.9348" y="9" width="358.744" height="50.6" filterUnits="userSpaceOnUse" color-interpolation-filters="sRGB">
<feFlood flood-opacity="0" result="BackgroundImageFix"/>
<feColorMatrix in="SourceAlpha" type="matrix" values="0 0 0 0 0 0 0 0 0 0 0 0 0 0 0 0 0 0 127 0" result="hardAlpha"/>
<feOffset dy="4"/>
<feGaussianBlur stdDeviation="2"/>
<feComposite in2="hardAlpha" operator="out"/>
<feColorMatrix type="matrix" values="0 0 0 0 0 0 0 0 0 0 0 0 0 0 0 0 0 0 0.25 0"/>
<feBlend mode="normal" in2="BackgroundImageFix" result="effect1_dropShadow_969_434"/>
<feBlend mode="normal" in="SourceGraphic" in2="effect1_dropShadow_969_434" result="shape"/>
<feColorMatrix in="SourceAlpha" type="matrix" values="0 0 0 0 0 0 0 0 0 0 0 0 0 0 0 0 0 0 127 0" result="hardAlpha"/>
<feOffset dx="4" dy="4"/>
<feGaussianBlur stdDeviation="2"/>
<feComposite in2="hardAlpha" operator="arithmetic" k2="-1" k3="1"/>
<feColorMatrix type="matrix" values="0 0 0 0 0 0 0 0 0 0 0 0 0 0 0 0 0 0 0.25 0"/>
<feBlend mode="normal" in2="shape" result="effect2_innerShadow_969_434"/>
</filter>
</defs>
<filter id="filter0_d" x="0" y="0" width="375" height="138" filterUnits="userSpaceOnUse">
    <feDropShadow dx="2" dy="2" stdDeviation="1" flood-color="gray"/>
</filter>
</svg>
