<svg width="375" height="138" viewBox="0 0 375 138" fill="none" xmlns="http://www.w3.org/2000/svg">
<g filter="url(#filter0_d)">
<g filter="url(#filter1_d)">
<mask id="path-1-outside-1_969_410" maskUnits="userSpaceOnUse" x="6" y="15" width="358" height="49" fill="black">
<rect fill="white" x="6" y="15" width="358" height="49"/>
<path d="M9.97477 51.3C20.9348 51.9 28.3548 52.2 32.2348 52.2C33.1548 52.2 33.8748 51.94 34.3948 51.42C34.9548 50.86 35.2348 50.12 35.2348 49.2V43.8H21.4348C17.2348 43.8 14.1748 42.86 12.2548 40.98C10.3748 39.06 9.43477 36 9.43477 31.8V30C9.43477 25.8 10.3748 22.76 12.2548 20.88C14.1748 18.96 17.2348 18 21.4348 18H42.4948V26.4H23.8348C21.4348 26.4 20.2348 27.6 20.2348 30V31.2C20.2348 33.6 21.4348 34.8 23.8348 34.8H34.6348C38.5548 34.8 41.4348 35.72 43.2748 37.56C45.1148 39.4 46.0348 42.28 46.0348 46.2V49.2C46.0348 53.12 45.1148 56 43.2748 57.84C41.4348 59.68 38.5548 60.6 34.6348 60.6C32.5948 60.6 30.4348 60.56 28.1548 60.48L22.6348 60.24C18.5548 60.04 14.3348 59.76 9.97477 59.4V51.3ZM44.8137 18H56.2137L66.1137 38.4L76.0137 18H87.4137L71.5137 48.9V60H60.7137V48.9L44.8137 18ZM126.409 60H115.009L100.609 34.8V60H89.809V18H101.209L115.609 43.2V18H126.409V60ZM154.037 60H143.237V26.4H130.637V18H166.637V26.4H154.037V60ZM207.444 60H196.644V42.9H181.644V60H170.844V18H181.644V34.5H196.644V18H207.444V60ZM225.472 51.6H247.372V60H214.672V18H225.472V51.6ZM284.886 60H251.586V18H284.886V26.4H262.386V34.5H280.086V42.9H262.386V51.6H284.886V60ZM310.072 60H299.272V26.4H286.672V18H322.672V26.4H310.072V60ZM360.179 60H326.879V18H360.179V26.4H337.679V34.5H355.379V42.9H337.679V51.6H360.179V60Z"/>
</mask>
<path d="M9.97477 51.3C20.9348 51.9 28.3548 52.2 32.2348 52.2C33.1548 52.2 33.8748 51.94 34.3948 51.42C34.9548 50.86 35.2348 50.12 35.2348 49.2V43.8H21.4348C17.2348 43.8 14.1748 42.86 12.2548 40.98C10.3748 39.06 9.43477 36 9.43477 31.8V30C9.43477 25.8 10.3748 22.76 12.2548 20.88C14.1748 18.96 17.2348 18 21.4348 18H42.4948V26.4H23.8348C21.4348 26.4 20.2348 27.6 20.2348 30V31.2C20.2348 33.6 21.4348 34.8 23.8348 34.8H34.6348C38.5548 34.8 41.4348 35.72 43.2748 37.56C45.1148 39.4 46.0348 42.28 46.0348 46.2V49.2C46.0348 53.12 45.1148 56 43.2748 57.84C41.4348 59.68 38.5548 60.6 34.6348 60.6C32.5948 60.6 30.4348 60.56 28.1548 60.48L22.6348 60.24C18.5548 60.04 14.3348 59.76 9.97477 59.4V51.3ZM44.8137 18H56.2137L66.1137 38.4L76.0137 18H87.4137L71.5137 48.9V60H60.7137V48.9L44.8137 18ZM126.409 60H115.009L100.609 34.8V60H89.809V18H101.209L115.609 43.2V18H126.409V60ZM154.037 60H143.237V26.4H130.637V18H166.637V26.4H154.037V60ZM207.444 60H196.644V42.9H181.644V60H170.844V18H181.644V34.5H196.644V18H207.444V60ZM225.472 51.6H247.372V60H214.672V18H225.472V51.6ZM284.886 60H251.586V18H284.886V26.4H262.386V34.5H280.086V42.9H262.386V51.6H284.886V60ZM310.072 60H299.272V26.4H286.672V18H322.672V26.4H310.072V60ZM360.179 60H326.879V18H360.179V26.4H337.679V34.5H355.379V42.9H337.679V51.6H360.179V60Z" fill="#8099EC"/>
<path d="M9.97477 51.3L10.1388 48.3045L6.97477 48.1313V51.3H9.97477ZM34.3948 51.42L32.2734 49.2987L32.2734 49.2987L34.3948 51.42ZM35.2348 43.8H38.2348V40.8H35.2348V43.8ZM12.2548 40.98L10.1112 43.0789L10.1333 43.1014L10.1559 43.1235L12.2548 40.98ZM12.2548 20.88L14.3761 23.0013L14.3761 23.0013L12.2548 20.88ZM42.4948 18H45.4948V15H42.4948V18ZM42.4948 26.4V29.4H45.4948V26.4H42.4948ZM43.2748 57.84L41.1534 55.7187L41.1534 55.7187L43.2748 57.84ZM28.1548 60.48L28.0245 63.4772L28.037 63.4777L28.0496 63.4782L28.1548 60.48ZM22.6348 60.24L22.4879 63.2364L22.4962 63.2368L22.5045 63.2372L22.6348 60.24ZM9.97477 59.4H6.97477V62.1625L9.7279 62.3898L9.97477 59.4ZM9.81078 54.2955C20.7607 54.895 28.2603 55.2 32.2348 55.2V49.2C28.4493 49.2 21.1088 48.905 10.1388 48.3045L9.81078 54.2955ZM32.2348 55.2C33.7395 55.2 35.3001 54.7573 36.5161 53.5413L32.2734 49.2987C32.3013 49.2708 32.3344 49.2442 32.3699 49.2219C32.4051 49.1998 32.4326 49.1881 32.4458 49.1833C32.471 49.1742 32.4155 49.2 32.2348 49.2V55.2ZM36.5161 53.5413C37.7299 52.3275 38.2348 50.7766 38.2348 49.2H32.2348C32.2348 49.3553 32.2115 49.4029 32.2189 49.3833C32.2223 49.3744 32.2298 49.3577 32.2425 49.3381C32.2552 49.3185 32.2671 49.305 32.2734 49.2987L36.5161 53.5413ZM38.2348 49.2V43.8H32.2348V49.2H38.2348ZM35.2348 40.8H21.4348V46.8H35.2348V40.8ZM21.4348 40.8C17.5915 40.8 15.4676 39.9272 14.3536 38.8365L10.1559 43.1235C12.882 45.7928 16.878 46.8 21.4348 46.8V40.8ZM14.3983 38.8811C13.3076 37.7672 12.4348 35.6433 12.4348 31.8H6.43477C6.43477 36.3567 7.44196 40.3528 10.1112 43.0789L14.3983 38.8811ZM12.4348 31.8V30H6.43477V31.8H12.4348ZM12.4348 30C12.4348 26.1494 13.3106 24.0668 14.3761 23.0013L10.1334 18.7587C7.43891 21.4532 6.43477 25.4506 6.43477 30H12.4348ZM14.3761 23.0013C15.4913 21.8861 17.6058 21 21.4348 21V15C16.8637 15 12.8582 16.0339 10.1334 18.7587L14.3761 23.0013ZM21.4348 21H42.4948V15H21.4348V21ZM39.4948 18V26.4H45.4948V18H39.4948ZM42.4948 23.4H23.8348V29.4H42.4948V23.4ZM23.8348 23.4C22.1723 23.4 20.3745 23.8176 19.0134 25.1787C17.6524 26.5397 17.2348 28.3376 17.2348 30H23.2348C23.2348 29.2624 23.4171 29.2603 23.2561 29.4213C23.095 29.5824 23.0972 29.4 23.8348 29.4V23.4ZM17.2348 30V31.2H23.2348V30H17.2348ZM17.2348 31.2C17.2348 32.8624 17.6524 34.6603 19.0134 36.0213C20.3745 37.3824 22.1723 37.8 23.8348 37.8V31.8C23.0972 31.8 23.095 31.6176 23.2561 31.7787C23.4171 31.9397 23.2348 31.9376 23.2348 31.2H17.2348ZM23.8348 37.8H34.6348V31.8H23.8348V37.8ZM34.6348 37.8C38.1566 37.8 40.1056 38.6335 41.1534 39.6813L45.3961 35.4387C42.7639 32.8065 38.9529 31.8 34.6348 31.8V37.8ZM41.1534 39.6813C42.2013 40.7291 43.0348 42.6781 43.0348 46.2H49.0348C49.0348 41.8819 48.0283 38.0709 45.3961 35.4387L41.1534 39.6813ZM43.0348 46.2V49.2H49.0348V46.2H43.0348ZM43.0348 49.2C43.0348 52.7219 42.2013 54.6709 41.1534 55.7187L45.3961 59.9613C48.0283 57.3291 49.0348 53.5181 49.0348 49.2H43.0348ZM41.1534 55.7187C40.1056 56.7665 38.1566 57.6 34.6348 57.6V63.6C38.9529 63.6 42.7639 62.5935 45.3961 59.9613L41.1534 55.7187ZM34.6348 57.6C32.6337 57.6 30.5089 57.5608 28.26 57.4818L28.0496 63.4782C30.3606 63.5592 32.5559 63.6 34.6348 63.6V57.6ZM28.2851 57.4828L22.7651 57.2428L22.5045 63.2372L28.0245 63.4772L28.2851 57.4828ZM22.7816 57.2436C18.7373 57.0453 14.5507 56.7676 10.2216 56.4102L9.7279 62.3898C14.1189 62.7524 18.3723 63.0347 22.4879 63.2364L22.7816 57.2436ZM12.9748 59.4V51.3H6.97477V59.4H12.9748ZM44.8137 18V15H39.8961L42.1461 19.3726L44.8137 18ZM56.2137 18L58.9126 16.6902L58.0924 15H56.2137V18ZM66.1137 38.4L63.4147 39.7098L66.1137 45.2713L68.8126 39.7098L66.1137 38.4ZM76.0137 18V15H74.1349L73.3147 16.6902L76.0137 18ZM87.4137 18L90.0812 19.3726L92.3312 15H87.4137V18ZM71.5137 48.9L68.8461 47.5274L68.5137 48.1734V48.9H71.5137ZM71.5137 60V63H74.5137V60H71.5137ZM60.7137 60H57.7137V63H60.7137V60ZM60.7137 48.9H63.7137V48.1734L63.3812 47.5274L60.7137 48.9ZM44.8137 21H56.2137V15H44.8137V21ZM53.5147 19.3098L63.4147 39.7098L68.8126 37.0902L58.9126 16.6902L53.5147 19.3098ZM68.8126 39.7098L78.7126 19.3098L73.3147 16.6902L63.4147 37.0902L68.8126 39.7098ZM76.0137 21H87.4137V15H76.0137V21ZM84.7461 16.6274L68.8461 47.5274L74.1812 50.2726L90.0812 19.3726L84.7461 16.6274ZM68.5137 48.9V60H74.5137V48.9H68.5137ZM71.5137 57H60.7137V63H71.5137V57ZM63.7137 60V48.9H57.7137V60H63.7137ZM63.3812 47.5274L47.4812 16.6274L42.1461 19.3726L58.0461 50.2726L63.3812 47.5274ZM126.409 60V63H129.409V60H126.409ZM115.009 60L112.404 61.4884L113.268 63H115.009V60ZM100.609 34.8L103.214 33.3116L97.609 23.5033V34.8H100.609ZM100.609 60V63H103.609V60H100.609ZM89.809 60H86.809V63H89.809V60ZM89.809 18V15H86.809V18H89.809ZM101.209 18L103.814 16.5116L102.95 15H101.209V18ZM115.609 43.2L113.004 44.6884L118.609 54.4967V43.2H115.609ZM115.609 18V15H112.609V18H115.609ZM126.409 18H129.409V15H126.409V18ZM126.409 57H115.009V63H126.409V57ZM117.614 58.5116L103.214 33.3116L98.0043 36.2884L112.404 61.4884L117.614 58.5116ZM97.609 34.8V60H103.609V34.8H97.609ZM100.609 57H89.809V63H100.609V57ZM92.809 60V18H86.809V60H92.809ZM89.809 21H101.209V15H89.809V21ZM98.6043 19.4884L113.004 44.6884L118.214 41.7116L103.814 16.5116L98.6043 19.4884ZM118.609 43.2V18H112.609V43.2H118.609ZM115.609 21H126.409V15H115.609V21ZM123.409 18V60H129.409V18H123.409ZM154.037 60V63H157.037V60H154.037ZM143.237 60H140.237V63H143.237V60ZM143.237 26.4H146.237V23.4H143.237V26.4ZM130.637 26.4H127.637V29.4H130.637V26.4ZM130.637 18V15H127.637V18H130.637ZM166.637 18H169.637V15H166.637V18ZM166.637 26.4V29.4H169.637V26.4H166.637ZM154.037 26.4V23.4H151.037V26.4H154.037ZM154.037 57H143.237V63H154.037V57ZM146.237 60V26.4H140.237V60H146.237ZM143.237 23.4H130.637V29.4H143.237V23.4ZM133.637 26.4V18H127.637V26.4H133.637ZM130.637 21H166.637V15H130.637V21ZM163.637 18V26.4H169.637V18H163.637ZM166.637 23.4H154.037V29.4H166.637V23.4ZM151.037 26.4V60H157.037V26.4H151.037ZM207.444 60V63H210.444V60H207.444ZM196.644 60H193.644V63H196.644V60ZM196.644 42.9H199.644V39.9H196.644V42.9ZM181.644 42.9V39.9H178.644V42.9H181.644ZM181.644 60V63H184.644V60H181.644ZM170.844 60H167.844V63H170.844V60ZM170.844 18V15H167.844V18H170.844ZM181.644 18H184.644V15H181.644V18ZM181.644 34.5H178.644V37.5H181.644V34.5ZM196.644 34.5V37.5H199.644V34.5H196.644ZM196.644 18V15H193.644V18H196.644ZM207.444 18H210.444V15H207.444V18ZM207.444 57H196.644V63H207.444V57ZM199.644 60V42.9H193.644V60H199.644ZM196.644 39.9H181.644V45.9H196.644V39.9ZM178.644 42.9V60H184.644V42.9H178.644ZM181.644 57H170.844V63H181.644V57ZM173.844 60V18H167.844V60H173.844ZM170.844 21H181.644V15H170.844V21ZM178.644 18V34.5H184.644V18H178.644ZM181.644 37.5H196.644V31.5H181.644V37.5ZM199.644 34.5V18H193.644V34.5H199.644ZM196.644 21H207.444V15H196.644V21ZM204.444 18V60H210.444V18H204.444ZM225.472 51.6H222.472V54.6H225.472V51.6ZM247.372 51.6H250.372V48.6H247.372V51.6ZM247.372 60V63H250.372V60H247.372ZM214.672 60H211.672V63H214.672V60ZM214.672 18V15H211.672V18H214.672ZM225.472 18H228.472V15H225.472V18ZM225.472 54.6H247.372V48.6H225.472V54.6ZM244.372 51.6V60H250.372V51.6H244.372ZM247.372 57H214.672V63H247.372V57ZM217.672 60V18H211.672V60H217.672ZM214.672 21H225.472V15H214.672V21ZM222.472 18V51.6H228.472V18H222.472ZM284.886 60V63H287.886V60H284.886ZM251.586 60H248.586V63H251.586V60ZM251.586 18V15H248.586V18H251.586ZM284.886 18H287.886V15H284.886V18ZM284.886 26.4V29.4H287.886V26.4H284.886ZM262.386 26.4V23.4H259.386V26.4H262.386ZM262.386 34.5H259.386V37.5H262.386V34.5ZM280.086 34.5H283.086V31.5H280.086V34.5ZM280.086 42.9V45.9H283.086V42.9H280.086ZM262.386 42.9V39.9H259.386V42.9H262.386ZM262.386 51.6H259.386V54.6H262.386V51.6ZM284.886 51.6H287.886V48.6H284.886V51.6ZM284.886 57H251.586V63H284.886V57ZM254.586 60V18H248.586V60H254.586ZM251.586 21H284.886V15H251.586V21ZM281.886 18V26.4H287.886V18H281.886ZM284.886 23.4H262.386V29.4H284.886V23.4ZM259.386 26.4V34.5H265.386V26.4H259.386ZM262.386 37.5H280.086V31.5H262.386V37.5ZM277.086 34.5V42.9H283.086V34.5H277.086ZM280.086 39.9H262.386V45.9H280.086V39.9ZM259.386 42.9V51.6H265.386V42.9H259.386ZM262.386 54.6H284.886V48.6H262.386V54.6ZM281.886 51.6V60H287.886V51.6H281.886ZM310.072 60V63H313.072V60H310.072ZM299.272 60H296.272V63H299.272V60ZM299.272 26.4H302.272V23.4H299.272V26.4ZM286.672 26.4H283.672V29.4H286.672V26.4ZM286.672 18V15H283.672V18H286.672ZM322.672 18H325.672V15H322.672V18ZM322.672 26.4V29.4H325.672V26.4H322.672ZM310.072 26.4V23.4H307.072V26.4H310.072ZM310.072 57H299.272V63H310.072V57ZM302.272 60V26.4H296.272V60H302.272ZM299.272 23.4H286.672V29.4H299.272V23.4ZM289.672 26.4V18H283.672V26.4H289.672ZM286.672 21H322.672V15H286.672V21ZM319.672 18V26.4H325.672V18H319.672ZM322.672 23.4H310.072V29.4H322.672V23.4ZM307.072 26.4V60H313.072V26.4H307.072ZM360.179 60V63H363.179V60H360.179ZM326.879 60H323.879V63H326.879V60ZM326.879 18V15H323.879V18H326.879ZM360.179 18H363.179V15H360.179V18ZM360.179 26.4V29.4H363.179V26.4H360.179ZM337.679 26.4V23.4H334.679V26.4H337.679ZM337.679 34.5H334.679V37.5H337.679V34.5ZM355.379 34.5H358.379V31.5H355.379V34.5ZM355.379 42.9V45.9H358.379V42.9H355.379ZM337.679 42.9V39.9H334.679V42.9H337.679ZM337.679 51.6H334.679V54.6H337.679V51.6ZM360.179 51.6H363.179V48.6H360.179V51.6ZM360.179 57H326.879V63H360.179V57ZM329.879 60V18H323.879V60H329.879ZM326.879 21H360.179V15H326.879V21ZM357.179 18V26.4H363.179V18H357.179ZM360.179 23.4H337.679V29.4H360.179V23.4ZM334.679 26.4V34.5H340.679V26.4H334.679ZM337.679 37.5H355.379V31.5H337.679V37.5ZM352.379 34.5V42.9H358.379V34.5H352.379ZM355.379 39.9H337.679V45.9H355.379V39.9ZM334.679 42.9V51.6H340.679V42.9H334.679ZM337.679 54.6H360.179V48.6H337.679V54.6ZM357.179 51.6V60H363.179V51.6H357.179Z" fill="white" mask="url(#path-1-outside-1_969_410)"/>
</g>
<path d="M121.893 85H114.678V75.9H121.893V77.72H117.018V79.475H120.853V81.295H117.018V83.18H121.893V85ZM126.31 85C125.729 85.0867 125.175 85.13 124.646 85.13C124.126 85.13 123.688 84.9523 123.333 84.597C122.978 84.2417 122.8 83.7693 122.8 83.18V75.9H125.075V82.855C125.075 82.985 125.118 83.0933 125.205 83.18C125.292 83.2667 125.4 83.31 125.53 83.31H126.31V85ZM129.883 79.605C129.536 79.605 129.363 79.7783 129.363 80.125V80.84H131.573V80.125C131.573 79.7783 131.4 79.605 131.053 79.605H129.883ZM133.588 84.87C131.915 85.0433 130.399 85.13 129.038 85.13C128.449 85.13 127.976 84.9523 127.621 84.597C127.266 84.2417 127.088 83.7693 127.088 83.18V80.06C127.088 79.41 127.27 78.903 127.634 78.539C128.007 78.1663 128.518 77.98 129.168 77.98H131.768C132.418 77.98 132.925 78.1663 133.289 78.539C133.662 78.903 133.848 79.41 133.848 80.06V82.465H129.363V82.985C129.363 83.115 129.406 83.2233 129.493 83.31C129.58 83.3967 129.688 83.44 129.818 83.44C130.676 83.44 131.933 83.375 133.588 83.245V84.87ZM139.501 78.11H141.906L139.306 85H136.706L134.106 78.11H136.511L138.006 82.79L139.501 78.11ZM144.903 83.31C145.362 83.31 145.882 83.2233 146.463 83.05V82.27H144.578C144.448 82.27 144.34 82.3133 144.253 82.4C144.166 82.4867 144.123 82.595 144.123 82.725V82.855C144.123 82.985 144.166 83.0933 144.253 83.18C144.34 83.2667 144.448 83.31 144.578 83.31H144.903ZM142.498 78.24C144.084 78.0667 145.514 77.98 146.788 77.98C147.377 77.98 147.85 78.1577 148.205 78.513C148.56 78.8683 148.738 79.3407 148.738 79.93V85H146.723L146.593 84.35C146.186 84.6187 145.765 84.818 145.332 84.948C144.907 85.0693 144.548 85.13 144.253 85.13H143.798C143.209 85.13 142.736 84.9523 142.381 84.597C142.026 84.2417 141.848 83.7693 141.848 83.18V82.595C141.848 82.0057 142.026 81.5333 142.381 81.178C142.736 80.8227 143.209 80.645 143.798 80.645H146.463V80.125C146.463 79.995 146.42 79.8867 146.333 79.8C146.246 79.7133 146.138 79.67 146.008 79.67C145.445 79.67 144.821 79.696 144.136 79.748C143.46 79.8 142.914 79.839 142.498 79.865V78.24ZM154.714 85C153.874 85.0867 153.05 85.13 152.244 85.13C151.655 85.13 151.183 84.9523 150.827 84.597C150.472 84.2417 150.294 83.7693 150.294 83.18V79.865H149.514V78.11H150.294L150.554 76.55H152.569V78.11H154.194V79.865H152.569V82.855C152.569 82.985 152.613 83.0933 152.699 83.18C152.786 83.2667 152.894 83.31 153.024 83.31H154.714V85ZM158.168 79.605C157.821 79.605 157.648 79.7783 157.648 80.125V80.84H159.858V80.125C159.858 79.7783 159.685 79.605 159.338 79.605H158.168ZM161.873 84.87C160.2 85.0433 158.684 85.13 157.323 85.13C156.734 85.13 156.261 84.9523 155.906 84.597C155.551 84.2417 155.373 83.7693 155.373 83.18V80.06C155.373 79.41 155.555 78.903 155.919 78.539C156.292 78.1663 156.803 77.98 157.453 77.98H160.053C160.703 77.98 161.21 78.1663 161.574 78.539C161.947 78.903 162.133 79.41 162.133 80.06V82.465H157.648V82.985C157.648 83.115 157.691 83.2233 157.778 83.31C157.865 83.3967 157.973 83.44 158.103 83.44C158.961 83.44 160.218 83.375 161.873 83.245V84.87ZM166.285 75.9H168.755L170.9 80.32L173.045 75.9H175.515L172.07 82.595V85H169.73V82.595L166.285 75.9ZM182.277 83.05C182.277 83.7 182.091 84.2113 181.718 84.584C181.354 84.948 180.847 85.13 180.197 85.13H177.207C176.557 85.13 176.046 84.948 175.673 84.584C175.309 84.2113 175.127 83.7 175.127 83.05V80.06C175.127 79.41 175.309 78.903 175.673 78.539C176.046 78.1663 176.557 77.98 177.207 77.98H180.197C180.847 77.98 181.354 78.1663 181.718 78.539C182.091 78.903 182.277 79.41 182.277 80.06V83.05ZM180.002 80.255C180.002 79.9083 179.829 79.735 179.482 79.735H177.922C177.575 79.735 177.402 79.9083 177.402 80.255V82.855C177.402 83.2017 177.575 83.375 177.922 83.375H179.482C179.829 83.375 180.002 83.2017 180.002 82.855V80.255ZM186.63 83.245C187.09 83.245 187.61 83.1583 188.19 82.985V78.11H190.465V85H188.45L188.32 84.35C187.913 84.6187 187.493 84.818 187.059 84.948C186.635 85.0693 186.275 85.13 185.98 85.13H185.395C184.806 85.13 184.334 84.9523 183.978 84.597C183.623 84.2417 183.445 83.7693 183.445 83.18V78.11H185.72V82.79C185.72 82.92 185.764 83.0283 185.85 83.115C185.937 83.2017 186.045 83.245 186.175 83.245H186.63ZM195.726 79.995C195.18 79.995 194.617 80.125 194.036 80.385V85H191.761V78.11H193.776L193.906 78.955C194.651 78.305 195.431 77.98 196.246 77.98H196.831V79.995H195.726ZM209.568 84.805C207.54 85.0217 205.676 85.13 203.978 85.13C203.128 85.13 202.504 84.9307 202.106 84.532C201.707 84.1333 201.508 83.5093 201.508 82.66V78.5C201.508 77.59 201.711 76.9313 202.119 76.524C202.535 76.108 203.198 75.9 204.108 75.9H208.788V77.72H204.628C204.108 77.72 203.848 77.98 203.848 78.5V82.66C203.848 82.8593 203.904 83.0197 204.017 83.141C204.138 83.2537 204.298 83.31 204.498 83.31C205.494 83.31 206.404 83.2883 207.228 83.245V81.36H205.538V79.8H209.568V84.805ZM213.47 83.31C213.93 83.31 214.45 83.2233 215.03 83.05V82.27H213.145C213.015 82.27 212.907 82.3133 212.82 82.4C212.734 82.4867 212.69 82.595 212.69 82.725V82.855C212.69 82.985 212.734 83.0933 212.82 83.18C212.907 83.2667 213.015 83.31 213.145 83.31H213.47ZM211.065 78.24C212.651 78.0667 214.081 77.98 215.355 77.98C215.945 77.98 216.417 78.1577 216.772 78.513C217.128 78.8683 217.305 79.3407 217.305 79.93V85H215.29L215.16 84.35C214.753 84.6187 214.333 84.818 213.899 84.948C213.475 85.0693 213.115 85.13 212.82 85.13H212.365C211.776 85.13 211.304 84.9523 210.948 84.597C210.593 84.2417 210.415 83.7693 210.415 83.18V82.595C210.415 82.0057 210.593 81.5333 210.948 81.178C211.304 80.8227 211.776 80.645 212.365 80.645H215.03V80.125C215.03 79.995 214.987 79.8867 214.9 79.8C214.814 79.7133 214.705 79.67 214.575 79.67C214.012 79.67 213.388 79.696 212.703 79.748C212.027 79.8 211.481 79.839 211.065 79.865V78.24ZM223.087 77.98C223.789 77.98 224.33 78.24 224.712 78.76C225.11 78.4913 225.539 78.2963 225.999 78.175C226.467 78.045 226.883 77.98 227.247 77.98H227.377C227.966 77.98 228.438 78.1577 228.794 78.513C229.149 78.8683 229.327 79.3407 229.327 79.93V85H227.052V80.32C227.052 80.19 227.008 80.0817 226.922 79.995C226.835 79.9083 226.727 79.865 226.597 79.865H226.532C226.142 79.865 225.643 79.9517 225.037 80.125V85H222.762V80.32C222.762 80.19 222.718 80.0817 222.632 79.995C222.545 79.9083 222.437 79.865 222.307 79.865H222.242C221.852 79.865 221.353 79.9517 220.747 80.125V85H218.472V78.11H220.487L220.617 78.76C221.024 78.4913 221.44 78.2963 221.865 78.175C222.298 78.045 222.662 77.98 222.957 77.98H223.087ZM233.159 79.605C232.813 79.605 232.639 79.7783 232.639 80.125V80.84H234.849V80.125C234.849 79.7783 234.676 79.605 234.329 79.605H233.159ZM236.864 84.87C235.192 85.0433 233.675 85.13 232.314 85.13C231.725 85.13 231.253 84.9523 230.897 84.597C230.542 84.2417 230.364 83.7693 230.364 83.18V80.06C230.364 79.41 230.546 78.903 230.91 78.539C231.283 78.1663 231.794 77.98 232.444 77.98H235.044C235.694 77.98 236.201 78.1663 236.565 78.539C236.938 78.903 237.124 79.41 237.124 80.06V82.465H232.639V82.985C232.639 83.115 232.683 83.2233 232.769 83.31C232.856 83.3967 232.964 83.44 233.094 83.44C233.952 83.44 235.209 83.375 236.864 83.245V84.87ZM238.029 83.05H240.369V84.87L239.459 86.3H238.289L238.809 85H238.029V83.05ZM251.29 75.9H253.63V82.53C253.63 83.44 253.422 84.103 253.006 84.519C252.598 84.9263 251.94 85.13 251.03 85.13H248.04C247.13 85.13 246.467 84.9263 246.051 84.519C245.643 84.103 245.44 83.44 245.44 82.53V75.9H247.78V82.53C247.78 83.05 248.04 83.31 248.56 83.31H250.51C251.03 83.31 251.29 83.05 251.29 82.53V75.9ZM258.895 79.865C258.435 79.865 257.915 79.9517 257.335 80.125V85H255.06V78.11H257.075L257.205 78.76C257.612 78.4913 258.028 78.2963 258.453 78.175C258.886 78.045 259.25 77.98 259.545 77.98H260.13C260.719 77.98 261.191 78.1577 261.547 78.513C261.902 78.8683 262.08 79.3407 262.08 79.93V85H259.805V80.32C259.805 80.19 259.761 80.0817 259.675 79.995C259.588 79.9083 259.48 79.865 259.35 79.865H258.895ZM266.108 78.37V85H263.833V80.125H262.858V78.37H266.108ZM263.833 75.77H266.108V77.59H263.833V75.77ZM272.222 85C271.382 85.0867 270.558 85.13 269.752 85.13C269.163 85.13 268.691 84.9523 268.335 84.597C267.98 84.2417 267.802 83.7693 267.802 83.18V79.865H267.022V78.11H267.802L268.062 76.55H270.077V78.11H271.702V79.865H270.077V82.855C270.077 82.985 270.121 83.0933 270.207 83.18C270.294 83.2667 270.402 83.31 270.532 83.31H272.222V85ZM275.676 79.605C275.329 79.605 275.156 79.7783 275.156 80.125V80.84H277.366V80.125C277.366 79.7783 277.193 79.605 276.846 79.605H275.676ZM279.381 84.87C277.708 85.0433 276.192 85.13 274.831 85.13C274.242 85.13 273.769 84.9523 273.414 84.597C273.059 84.2417 272.881 83.7693 272.881 83.18V80.06C272.881 79.41 273.063 78.903 273.427 78.539C273.8 78.1663 274.311 77.98 274.961 77.98H277.561C278.211 77.98 278.718 78.1663 279.082 78.539C279.455 78.903 279.641 79.41 279.641 80.06V82.465H275.156V82.985C275.156 83.115 275.199 83.2233 275.286 83.31C275.373 83.3967 275.481 83.44 275.611 83.44C276.469 83.44 277.726 83.375 279.381 83.245V84.87ZM283.793 75.9H286.263L288.408 80.32L290.553 75.9H293.023L289.578 82.595V85H287.238V82.595L283.793 75.9ZM299.785 83.05C299.785 83.7 299.598 84.2113 299.226 84.584C298.862 84.948 298.355 85.13 297.705 85.13H294.715C294.065 85.13 293.553 84.948 293.181 84.584C292.817 84.2113 292.635 83.7 292.635 83.05V80.06C292.635 79.41 292.817 78.903 293.181 78.539C293.553 78.1663 294.065 77.98 294.715 77.98H297.705C298.355 77.98 298.862 78.1663 299.226 78.539C299.598 78.903 299.785 79.41 299.785 80.06V83.05ZM297.51 80.255C297.51 79.9083 297.336 79.735 296.99 79.735H295.43C295.083 79.735 294.91 79.9083 294.91 80.255V82.855C294.91 83.2017 295.083 83.375 295.43 83.375H296.99C297.336 83.375 297.51 83.2017 297.51 82.855V80.255ZM304.138 83.245C304.598 83.245 305.118 83.1583 305.698 82.985V78.11H307.973V85H305.958L305.828 84.35C305.421 84.6187 305.001 84.818 304.567 84.948C304.143 85.0693 303.783 85.13 303.488 85.13H302.903C302.314 85.13 301.842 84.9523 301.486 84.597C301.131 84.2417 300.953 83.7693 300.953 83.18V78.11H303.228V82.79C303.228 82.92 303.272 83.0283 303.358 83.115C303.445 83.2017 303.553 83.245 303.683 83.245H304.138ZM313.234 79.995C312.688 79.995 312.124 80.125 311.544 80.385V85H309.269V78.11H311.284L311.414 78.955C312.159 78.305 312.939 77.98 313.754 77.98H314.339V79.995H313.234ZM323.696 85H321.356V77.72H318.626V75.9H326.426V77.72H323.696V85ZM329.225 79.605C328.878 79.605 328.705 79.7783 328.705 80.125V80.84H330.915V80.125C330.915 79.7783 330.741 79.605 330.395 79.605H329.225ZM332.93 84.87C331.257 85.0433 329.74 85.13 328.38 85.13C327.79 85.13 327.318 84.9523 326.963 84.597C326.607 84.2417 326.43 83.7693 326.43 83.18V80.06C326.43 79.41 326.612 78.903 326.976 78.539C327.348 78.1663 327.86 77.98 328.51 77.98H331.11C331.76 77.98 332.267 78.1663 332.631 78.539C333.003 78.903 333.19 79.41 333.19 80.06V82.465H328.705V82.985C328.705 83.115 328.748 83.2233 328.835 83.31C328.921 83.3967 329.03 83.44 329.16 83.44C330.018 83.44 331.274 83.375 332.93 83.245V84.87ZM337.085 83.31C337.544 83.31 338.064 83.2233 338.645 83.05V82.27H336.76C336.63 82.27 336.521 82.3133 336.435 82.4C336.348 82.4867 336.305 82.595 336.305 82.725V82.855C336.305 82.985 336.348 83.0933 336.435 83.18C336.521 83.2667 336.63 83.31 336.76 83.31H337.085ZM334.68 78.24C336.266 78.0667 337.696 77.98 338.97 77.98C339.559 77.98 340.031 78.1577 340.387 78.513C340.742 78.8683 340.92 79.3407 340.92 79.93V85H338.905L338.775 84.35C338.367 84.6187 337.947 84.818 337.514 84.948C337.089 85.0693 336.729 85.13 336.435 85.13H335.98C335.39 85.13 334.918 84.9523 334.563 84.597C334.207 84.2417 334.03 83.7693 334.03 83.18V82.595C334.03 82.0057 334.207 81.5333 334.563 81.178C334.918 80.8227 335.39 80.645 335.98 80.645H338.645V80.125C338.645 79.995 338.601 79.8867 338.515 79.8C338.428 79.7133 338.32 79.67 338.19 79.67C337.626 79.67 337.002 79.696 336.318 79.748C335.642 79.8 335.096 79.839 334.68 79.865V78.24ZM346.701 77.98C347.403 77.98 347.945 78.24 348.326 78.76C348.725 78.4913 349.154 78.2963 349.613 78.175C350.081 78.045 350.497 77.98 350.861 77.98H350.991C351.58 77.98 352.053 78.1577 352.408 78.513C352.763 78.8683 352.941 79.3407 352.941 79.93V85H350.666V80.32C350.666 80.19 350.623 80.0817 350.536 79.995C350.449 79.9083 350.341 79.865 350.211 79.865H350.146C349.756 79.865 349.258 79.9517 348.651 80.125V85H346.376V80.32C346.376 80.19 346.333 80.0817 346.246 79.995C346.159 79.9083 346.051 79.865 345.921 79.865H345.856C345.466 79.865 344.968 79.9517 344.361 80.125V85H342.086V78.11H344.101L344.231 78.76C344.638 78.4913 345.054 78.2963 345.479 78.175C345.912 78.045 346.276 77.98 346.571 77.98H346.701ZM354.108 83.05H356.448V85H354.108V83.05ZM354.368 82.27L354.108 79.54V75.9H356.448V79.54L356.188 82.27H354.368Z" fill="white"/>
</g>
<defs>
<filter id="filter0_d_969_410" x="5.43481" y="18" width="358.744" height="76.3" filterUnits="userSpaceOnUse" color-interpolation-filters="sRGB">
<feFlood flood-opacity="0" result="BackgroundImageFix"/>
<feColorMatrix in="SourceAlpha" type="matrix" values="0 0 0 0 0 0 0 0 0 0 0 0 0 0 0 0 0 0 127 0" result="hardAlpha"/>
<feOffset dy="4"/>
<feGaussianBlur stdDeviation="2"/>
<feComposite in2="hardAlpha" operator="out"/>
<feColorMatrix type="matrix" values="0 0 0 0 0 0 0 0 0 0 0 0 0 0 0 0 0 0 0.25 0"/>
<feBlend mode="normal" in2="BackgroundImageFix" result="effect1_dropShadow_969_410"/>
<feBlend mode="normal" in="SourceGraphic" in2="effect1_dropShadow_969_410" result="shape"/>
</filter>
<filter id="filter1_d_969_410" x="5.43481" y="18" width="358.744" height="50.6" filterUnits="userSpaceOnUse" color-interpolation-filters="sRGB">
<feFlood flood-opacity="0" result="BackgroundImageFix"/>
<feColorMatrix in="SourceAlpha" type="matrix" values="0 0 0 0 0 0 0 0 0 0 0 0 0 0 0 0 0 0 127 0" result="hardAlpha"/>
<feOffset dy="4"/>
<feGaussianBlur stdDeviation="2"/>
<feComposite in2="hardAlpha" operator="out"/>
<feColorMatrix type="matrix" values="0 0 0 0 0 0 0 0 0 0 0 0 0 0 0 0 0 0 0.25 0"/>
<feBlend mode="normal" in2="BackgroundImageFix" result="effect1_dropShadow_969_410"/>
<feBlend mode="normal" in="SourceGraphic" in2="effect1_dropShadow_969_410" result="shape"/>
</filter>
</defs>
<filter id="filter0_d" x="0" y="0" width="375" height="138" filterUnits="userSpaceOnUse">
    <feDropShadow dx="2" dy="2" stdDeviation="1" flood-color="gray"/>
</filter>
</svg>
