<svg width="16" height="15" viewBox="0 0 19 18" fill="none" xmlns="http://www.w3.org/2000/svg">
<path d="M17.4166 12.69V14.94C17.4175 15.1489 17.3724 15.3556 17.284 15.547C17.1957 15.7384 17.0662 15.9102 16.9037 16.0514C16.7412 16.1926 16.5494 16.3001 16.3406 16.367C16.1317 16.434 15.9104 16.4588 15.6908 16.44C13.2547 16.1892 10.9147 15.4006 8.85872 14.1375C6.94591 12.986 5.32419 11.4496 4.10872 9.63751C2.77078 7.68092 1.93816 5.45326 1.6783 3.13501C1.65852 2.92761 1.68454 2.71858 1.7547 2.52123C1.82486 2.32388 1.93763 2.14253 2.08582 1.98873C2.23402 1.83493 2.4144 1.71204 2.61547 1.6279C2.81654 1.54376 3.0339 1.50021 3.25372 1.50001H5.62872C6.01292 1.49643 6.38539 1.62532 6.6767 1.86266C6.96801 2.1 7.15828 2.4296 7.21205 2.79001C7.31229 3.51006 7.4982 4.21706 7.76622 4.89751C7.87273 5.16595 7.89578 5.4577 7.83264 5.73817C7.7695 6.01865 7.62282 6.27609 7.40997 6.48001L6.40455 7.43251C7.53153 9.31017 9.17258 10.8648 11.1546 11.9325L12.16 10.98C12.3752 10.7784 12.647 10.6394 12.943 10.5796C13.2391 10.5198 13.547 10.5416 13.8304 10.6425C14.5486 10.8964 15.2949 11.0725 16.055 11.1675C16.4395 11.2189 16.7907 11.4024 17.0418 11.6831C17.2929 11.9638 17.4263 12.3222 17.4166 12.69Z" stroke="#2D68F8" stroke-width="2px" stroke-linecap="round" stroke-linejoin="round"/>
<path d="M11.1228 1.5C12.7364 1.66108 14.2437 2.3391 15.3953 3.42194C16.547 4.50477 17.274 5.92756 17.4561 7.455" stroke="#2D68F8" stroke-width="2px" stroke-linecap="round" stroke-linejoin="round"/>
<path d="M11.1228 4.5C11.9014 4.64545 12.6159 5.00927 13.1735 5.54423C13.7311 6.07919 14.1062 6.7606 14.2499 7.5" stroke="#2D68F8" stroke-width="2px" stroke-linecap="round" stroke-linejoin="round"/>
</svg>
