<svg width="20" height="24" viewBox="0 0 20 24" fill="none" xmlns="http://www.w3.org/2000/svg">
<g id="Group">
<path id="Vector" d="M10 0.674988C4.825 0.674988 0.625 4.72499 0.625 9.71249C0.625 13.5 5.65 19.5 8.6125 22.725C8.9875 23.1375 9.475 23.325 10 23.325C10.525 23.325 11.0125 23.1 11.3875 22.725C14.35 19.5 19.375 13.5 19.375 9.71249C19.375 4.72499 15.175 0.674988 10 0.674988ZM10.15 21.6C10.075 21.675 9.9625 21.675 9.85 21.6C6.2125 17.625 2.3125 12.45 2.3125 9.71249C2.3125 5.66249 5.7625 2.36249 10 2.36249C14.2375 2.36249 17.6875 5.66249 17.6875 9.71249C17.6875 12.45 13.7875 17.625 10.15 21.6Z" fill="white"/>
<path id="Vector_2" d="M10.0001 5.88748C7.7501 5.88748 5.9126 7.72498 5.9126 9.97498C5.9126 12.225 7.7501 14.1 10.0001 14.1C12.2501 14.1 14.0876 12.2625 14.0876 10.0125C14.0876 7.76248 12.2501 5.88748 10.0001 5.88748ZM10.0001 12.4125C8.6501 12.4125 7.6001 11.325 7.6001 10.0125C7.6001 8.69998 8.6876 7.61248 10.0001 7.61248C11.3126 7.61248 12.4001 8.69998 12.4001 10.0125C12.4001 11.325 11.3501 12.4125 10.0001 12.4125Z" fill="white"/>
</g>
</svg>
