<svg width="40" height="40" viewBox="0 0 40 40" fill="none" xmlns="http://www.w3.org/2000/svg">
<path d="M28.6421 30.566V28.3019C28.6421 27.1009 28.1218 25.9491 27.1957 25.0999C26.2696 24.2507 25.0135 23.7736 23.7038 23.7736H16.2964C14.9867 23.7736 13.7306 24.2507 12.8045 25.0999C11.8784 25.9491 11.3582 27.1009 11.3582 28.3019V30.566" stroke="black" stroke-width="2" stroke-linecap="round" stroke-linejoin="round"/>
<path d="M20 19.2453C22.7274 19.2453 24.9383 17.2179 24.9383 14.717C24.9383 12.2161 22.7274 10.1887 20 10.1887C17.2727 10.1887 15.0618 12.2161 15.0618 14.717C15.0618 17.2179 17.2727 19.2453 20 19.2453Z" stroke="black" stroke-width="2" stroke-linecap="round" stroke-linejoin="round"/>
<path d="M19.9999 36.6667C29.2047 36.6667 36.6666 29.2048 36.6666 20C36.6666 10.7953 29.2047 3.33334 19.9999 3.33334C10.7952 3.33334 3.33325 10.7953 3.33325 20C3.33325 29.2048 10.7952 36.6667 19.9999 36.6667Z" stroke="#141718" stroke-width="2" stroke-linecap="round" stroke-linejoin="round"/>
</svg>
