<svg width="65" height="65" viewBox="0 0 65 65" fill="none" xmlns="http://www.w3.org/2000/svg">
<circle cx="32.5" cy="32.5" r="32" fill="#1C3FB7" stroke="white"/>
<mask id="path-2-outside-1_1195_442" maskUnits="userSpaceOnUse" x="19" y="17" width="25" height="29" fill="black">
<rect fill="white" x="19" y="17" width="25" height="29"/>
<path d="M21.326 38.07C27.5367 38.41 31.7413 38.58 33.94 38.58C34.4613 38.58 34.8693 38.4327 35.164 38.138C35.4813 37.8207 35.64 37.4013 35.64 36.88V33.82H27.82C25.44 33.82 23.706 33.2873 22.618 32.222C21.5527 31.134 21.02 29.4 21.02 27.02V26C21.02 23.62 21.5527 21.8973 22.618 20.832C23.706 19.744 25.44 19.2 27.82 19.2H39.754V23.96H29.18C27.82 23.96 27.14 24.64 27.14 26V26.68C27.14 28.04 27.82 28.72 29.18 28.72H35.3C37.5213 28.72 39.1533 29.2413 40.196 30.284C41.2387 31.3267 41.76 32.9587 41.76 35.18V36.88C41.76 39.1013 41.2387 40.7333 40.196 41.776C39.1533 42.8187 37.5213 43.34 35.3 43.34C34.144 43.34 32.92 43.3173 31.628 43.272L28.5 43.136C26.188 43.0227 23.7967 42.864 21.326 42.66V38.07Z"/>
</mask>
<path d="M21.326 38.07C27.5367 38.41 31.7413 38.58 33.94 38.58C34.4613 38.58 34.8693 38.4327 35.164 38.138C35.4813 37.8207 35.64 37.4013 35.64 36.88V33.82H27.82C25.44 33.82 23.706 33.2873 22.618 32.222C21.5527 31.134 21.02 29.4 21.02 27.02V26C21.02 23.62 21.5527 21.8973 22.618 20.832C23.706 19.744 25.44 19.2 27.82 19.2H39.754V23.96H29.18C27.82 23.96 27.14 24.64 27.14 26V26.68C27.14 28.04 27.82 28.72 29.18 28.72H35.3C37.5213 28.72 39.1533 29.2413 40.196 30.284C41.2387 31.3267 41.76 32.9587 41.76 35.18V36.88C41.76 39.1013 41.2387 40.7333 40.196 41.776C39.1533 42.8187 37.5213 43.34 35.3 43.34C34.144 43.34 32.92 43.3173 31.628 43.272L28.5 43.136C26.188 43.0227 23.7967 42.864 21.326 42.66V38.07Z" fill="#1C3FB7"/>
<path d="M21.326 38.07L21.4353 36.073L19.326 35.9575V38.07H21.326ZM35.164 38.138L33.7498 36.7238L33.7498 36.7238L35.164 38.138ZM35.64 33.82H37.64V31.82H35.64V33.82ZM22.618 32.222L21.189 33.6212L21.2037 33.6363L21.2188 33.651L22.618 32.222ZM22.618 20.832L24.0322 22.2462L24.0322 22.2462L22.618 20.832ZM39.754 19.2H41.754V17.2H39.754V19.2ZM39.754 23.96V25.96H41.754V23.96H39.754ZM40.196 41.776L38.7818 40.3618L38.7818 40.3618L40.196 41.776ZM31.628 43.272L31.5411 45.2701L31.5495 45.2705L31.5579 45.2708L31.628 43.272ZM28.5 43.136L28.4021 45.1336L28.4131 45.1341L28.5 43.136ZM21.326 42.66H19.326V44.5017L21.1614 44.6532L21.326 42.66ZM21.2167 40.067C27.4206 40.4066 31.6783 40.58 33.94 40.58V36.58C31.8043 36.58 27.6527 36.4134 21.4353 36.073L21.2167 40.067ZM33.94 40.58C34.8512 40.58 35.8195 40.3109 36.5782 39.5522L33.7498 36.7238C33.7814 36.6922 33.8177 36.6631 33.8568 36.6385C33.8958 36.614 33.9309 36.5981 33.9577 36.5884C34.0105 36.5693 34.0145 36.58 33.94 36.58V40.58ZM36.5782 39.5522C37.3315 38.799 37.64 37.839 37.64 36.88H33.64C33.64 36.9376 33.6315 36.9278 33.6504 36.8777C33.6597 36.8532 33.6735 36.8248 33.6924 36.7954C33.7114 36.7661 33.7316 36.742 33.7498 36.7238L36.5782 39.5522ZM37.64 36.88V33.82H33.64V36.88H37.64ZM35.64 31.82H27.82V35.82H35.64V31.82ZM27.82 31.82C25.6778 31.82 24.5679 31.3321 24.0172 30.793L21.2188 33.651C22.8441 35.2425 25.2022 35.82 27.82 35.82V31.82ZM24.047 30.8228C23.5079 30.2721 23.02 29.1622 23.02 27.02H19.02C19.02 29.6378 19.5975 31.9959 21.189 33.6212L24.047 30.8228ZM23.02 27.02V26H19.02V27.02H23.02ZM23.02 26C23.02 23.8529 23.5099 22.7685 24.0322 22.2462L21.2038 19.4178C19.5954 21.0261 19.02 23.3871 19.02 26H23.02ZM24.0322 22.2462C24.5837 21.6947 25.6874 21.2 27.82 21.2V17.2C25.1926 17.2 22.8283 17.7933 21.2038 19.4178L24.0322 22.2462ZM27.82 21.2H39.754V17.2H27.82V21.2ZM37.754 19.2V23.96H41.754V19.2H37.754ZM39.754 21.96H29.18V25.96H39.754V21.96ZM29.18 21.96C28.1917 21.96 27.0831 22.2084 26.2358 23.0558C25.3884 23.9031 25.14 25.0117 25.14 26H29.14C29.14 25.9126 29.1455 25.8485 29.1518 25.8047C29.158 25.7611 29.1644 25.7412 29.1649 25.74C29.1651 25.7393 29.1592 25.7569 29.1419 25.7859C29.1241 25.8155 29.0984 25.8501 29.0642 25.8842C29.0301 25.9184 28.9955 25.9441 28.9659 25.9619C28.9369 25.9792 28.9193 25.9851 28.92 25.9849C28.9212 25.9844 28.9411 25.978 28.9847 25.9718C29.0285 25.9655 29.0926 25.96 29.18 25.96V21.96ZM25.14 26V26.68H29.14V26H25.14ZM25.14 26.68C25.14 27.6683 25.3884 28.7769 26.2358 29.6242C27.0831 30.4716 28.1917 30.72 29.18 30.72V26.72C29.0926 26.72 29.0285 26.7145 28.9847 26.7082C28.9411 26.702 28.9212 26.6956 28.92 26.6951C28.9193 26.6949 28.9369 26.7008 28.9659 26.7181C28.9955 26.7359 29.0301 26.7616 29.0642 26.7958C29.0984 26.8299 29.1241 26.8645 29.1419 26.8941C29.1592 26.9231 29.1651 26.9407 29.1649 26.94C29.1644 26.9388 29.158 26.9189 29.1518 26.8753C29.1455 26.8315 29.14 26.7674 29.14 26.68H25.14ZM29.18 30.72H35.3V26.72H29.18V30.72ZM35.3 30.72C37.2559 30.72 38.2673 31.1837 38.7818 31.6982L41.6102 28.8698C40.0394 27.299 37.7868 26.72 35.3 26.72V30.72ZM38.7818 31.6982C39.2963 32.2128 39.76 33.2241 39.76 35.18H43.76C43.76 32.6932 43.181 30.4406 41.6102 28.8698L38.7818 31.6982ZM39.76 35.18V36.88H43.76V35.18H39.76ZM39.76 36.88C39.76 38.8359 39.2963 39.8472 38.7818 40.3618L41.6102 43.1902C43.181 41.6194 43.76 39.3668 43.76 36.88H39.76ZM38.7818 40.3618C38.2673 40.8763 37.2559 41.34 35.3 41.34V45.34C37.7868 45.34 40.0394 44.761 41.6102 43.1902L38.7818 40.3618ZM35.3 41.34C34.1699 41.34 32.9694 41.3178 31.6981 41.2732L31.5579 45.2708C32.8706 45.3168 34.1181 45.34 35.3 45.34V41.34ZM31.7149 41.2739L28.5869 41.1379L28.4131 45.1341L31.5411 45.2701L31.7149 41.2739ZM28.5979 41.1384C26.3097 41.0262 23.9406 40.8691 21.4906 40.6668L21.1614 44.6532C23.6527 44.8589 26.0663 45.0191 28.4021 45.1336L28.5979 41.1384ZM23.326 42.66V38.07H19.326V42.66H23.326Z" fill="white" mask="url(#path-2-outside-1_1195_442)"/>
</svg>
