<?xml version="1.0" encoding="UTF-8"?>
<svg xmlns="http://www.w3.org/2000/svg" viewBox="0 0 24 24">
    <path d="M 7.25 3 L 5.75 3.53125 C 4.925 3.75625 4.2625 4.2625 3.8125 4.9375 L 2 9 L 4.25 10.125 L 5 8.6875 L 5 16.5 C 5 17.325 5.675 18 6.5 18 L 12.5 18 C 13.325 18 14 17.325 14 16.5 L 14 8.6875 L 14.75 10.125 L 17 9 L 15.1875 4.9375 C 14.7375 4.2625 14.075 3.75625 13.25 3.53125 L 11.75 3 C 11.75 3 11.225 4.5 9.5 4.5 C 7.775 4.5 7.25 3 7.25 3 z M 16.75 6 L 18.3125 9.46875 L 15 11.125 L 15 16.5 C 15 17.879 13.878 19 12.5 19 L 10 19 L 10 19.5 C 10 20.325 10.675 21 11.5 21 L 17.5 21 C 18.325 21 19 20.325 19 19.5 L 19 11.6875 L 19.75 13.125 L 22 12 L 20.1875 7.9375 C 19.7375 7.2625 19.075 6.75625 18.25 6.53125 L 16.75 6 z M 9.46875 7 C 11.39175 7 11.59375 8.20525 11.59375 8.65625 C 11.59375 9.47225 10.779 9.8735 10.625 9.9375 C 10.981 10.0555 11.6875 10.3925 11.6875 11.3125 C 11.6865 12.6325 10.38675 13.03125 9.46875 13.03125 C 7.82175 13.03125 7.2485 11.96375 7.3125 11.34375 L 8.5625 11.34375 C 8.5265 11.55675 8.742 12.09375 9.5 12.09375 C 10.399 12.09375 10.4375 11.40225 10.4375 11.28125 C 10.4375 10.36725 9.56625 10.40625 9.40625 10.40625 L 8.75 10.40625 L 8.75 9.5 L 9.40625 9.5 C 9.72425 9.5 10.34375 9.4085 10.34375 8.6875 C 10.34375 7.9815 9.644 7.9375 9.5 7.9375 C 8.785 7.9375 8.65625 8.41275 8.65625 8.59375 L 7.375 8.59375 C 7.375 7.43275 8.61275 7 9.46875 7 z"/>
</svg>