<svg xmlns="http://www.w3.org/2000/svg" viewBox="0 0 48 48" x="3">
  <defs>
    <style>.cls-1 { fill: #201602; stroke: #201602; stroke-width: 1; }</style>
  </defs>
  <title>Asset 6ldpi</title>
  <g id="Layer_2" data-name="Layer 2">
    <g id="layer_1-2" data-name="layer 1">
      <path class="cls-1" d="M32.42,42.15l-.84-1.82a18,18,0,0,0,9.16-9.7l1.86.74A20,20,0,0,1,32.42,42.15Z"/>
      <path class="cls-1" d="M39.85,15.47a18.16,18.16,0,0,0-8.27-7.8l.84-1.81a20.13,20.13,0,0,1,9.19,8.66Z"/>
      <path class="cls-1" d="M8.14,15.47l-1.76-.94a20.2,20.2,0,0,1,9.19-8.67l.85,1.81A18.23,18.23,0,0,0,8.14,15.47Z"/>
      <path class="cls-1" d="M15.58,42.14A20,20,0,0,1,5.4,31.37l1.86-.74a18,18,0,0,0,9.16,9.7Z"/>
      <path class="cls-1" d="M24,9c-2.21,0-4-2.24-4-5a3.71,3.71,0,0,1,4-4,3.71,3.71,0,0,1,4,4C28,6.76,26.21,9,24,9Zm0-7c-1.79,0-2,1.14-2,2,0,1.6,.93,3,2,3s2-1.4,2-3C26,3.14,25.79,2,24,2Z"/>
      <path class="cls-1" d="M31,15H29V10.69a1,1,0,0,0-.84-1L24,9l-4.16.7a1,1,0,0,0-.84,1V15H17V10.69a3,3,0,0,1,2.51-2.95L23.84,7h.32l4.33.73A3,3,0,0,1,31,10.69Z"/>
      <path class="cls-1" d="M24,42c-2.21,0-4-2.24-4-5a3.71,3.71,0,0,1,4-4,3.71,3.71,0,0,1,4,4C28,39.76,26.21,42,24,42Zm0-7c-1.79,0-2,1.14-2,2,0,1.6,.93,3,2,3s2-1.4,2-3C26,36.14,25.79,35,24,35Z"/>
      <path class="cls-1" d="M31,48H29V43.69a1,1,0,0,0-.84-1L24,42l-4.16.7a1,1,0,0,0-.84,1V48H17V43.69a3,3,0,0,1,2.51-2.95L23.84,40h.32l4.33.73A3,3,0,0,1,31,43.69Z"/>
      <path class="cls-1" d="M7,25c-2.21,0-4-2.24-4-5a3.71,3.71,0,0,1,4-4,3.71,3.71,0,0,1,4,4C11,22.76,9.21,25,7,25Zm0-7c-1.79,0-2,1.14-2,2,0,1.6,.93,3,2,3s2-1.4,2-3C9,19.14,8.79,18,7,18Z"/>
      <path class="cls-1" d="M14,31H12V26.69a1,1,0,0,0-.84-1L7,25l-4.16.7a1,1,0,0,0-.84,1V31H0V26.69a3,3,0,0,1,2.51-3L6.84,23a1.71,1.71,0,0,1,.32,0l4.33.73a3,3,0,0,1,2.51,3Z"/>
      <path class="cls-1" d="M41,25c-2.21,0-4-2.24-4-5a3.71,3.71,0,0,1,4-4,3.71,3.71,0,0,1,4,4C45,22.76,43.21,25,41,25Zm0-7c-1.79,0-2,1.14-2,2,0,1.6,.93,3,2,3s2-1.4,2-3C43,19.14,42.79,18,41,18Z"/>
      <path class="cls-1" d="M48,31H46V26.69a1,1,0,0,0-.84-1L41,25l-4.16.7a1,1,0,0,0-.84,1V31H34V26.69a3,3,0,0,1,2.51-3L40.84,23a1.71,1.71,0,0,1,.32,0l4.33.73a3,3,0,0,1,2.51,3Z"/>
    </g>
  </g>
</svg>
