<?xml version="1.0" encoding="iso-8859-1"?>
<!-- Generator: Adobe Illustrator 23.0.2, SVG Export Plug-In . SVG Version: 6.00 Build 0)  -->
<svg version="1.1" id="Layer_1" xmlns="http://www.w3.org/2000/svg" xmlns:xlink="http://www.w3.org/1999/xlink" x="0px" y="0px"
	 viewBox="0 0 43 27" style="enable-background:new 0 0 43 27;" xml:space="preserve">
<g id="player-five-7_1_" >
	<polygon points="36,13 38,13 38,12 37,12 36,12 	"/>
	<path d="M41.224,6.023C40.413,7.215,39.047,8,37.5,8c-0.536,0-1.049-0.1-1.525-0.273C35.982,7.818,36,7.907,36,8v1h1h2v1h-2v1h1h1
		v1v1v1h-1h-2v1c0,1.304-0.836,2.416-2,2.829V19h7v-2c1.104,0,2-0.896,2-2V8C43,6.973,42.222,6.135,41.224,6.023z"/>
	<path d="M34,26c0,0.553,0.447,1,1,1h5c0.553,0,1-0.447,1-1v-6h-7V26z"/>
	<path d="M35.517,6.381C36.081,6.769,36.763,7,37.5,7C39.434,7,41,5.434,41,3.5S39.434,0,37.5,0C35.566,0,34,1.566,34,3.5
		c0,0.75,0.24,1.441,0.642,2.011C34.991,5.739,35.291,6.032,35.517,6.381z"/>
	<path d="M2,20v6c0,0.553,0.447,1,1,1h5c0.553,0,1-0.447,1-1v-6H2z"/>
	<path d="M9,17.829C7.836,17.416,7,16.304,7,15v-1H6v-2H5H4v-1V9h1v2h1V9h1V8c0-0.093,0.018-0.182,0.025-0.273
		C6.549,7.9,6.036,8,5.5,8C3.953,8,2.587,7.215,1.776,6.023C0.778,6.135,0,6.973,0,8v3h2v1H0v3c0,1.104,0.895,2,2,2v2h7V17.829z"/>
	<path d="M26,26c0,0.553,0.447,1,1,1h5c0.553,0,1-0.447,1-1v-6h-7V26z"/>
	<path d="M35,15v-3h-1h-1v-1h1h1V8c0-1.027-0.778-1.865-1.776-1.977C32.413,7.215,31.047,8,29.5,8c-0.536,0-1.049-0.1-1.525-0.273
		C27.982,7.818,28,7.907,28,8v1h2h1v1v1v1v1v1h-1h-2v1c0,1.304-0.836,2.416-2,2.829V19h7v-2C34.104,17,35,16.104,35,15z"/>
	<polygon points="30,11 30,10 28,10 28,13 30,13 30,12 29,12 29,11 	"/>
	<polygon points="13,12 13,13 15,13 15,12 14,12 	"/>
	<path d="M17,19v-1.171c-1.164-0.413-2-1.525-2-2.829v-1h-2h-1v-1v-1v-1h1h1v-1h-2V9h2h1V8c0-0.093,0.018-0.182,0.025-0.273
		C14.549,7.9,14.036,8,13.5,8c-1.547,0-2.913-0.785-3.724-1.977C8.778,6.135,8,6.973,8,8v3h2v1H8v3c0,1.104,0.895,2,2,2v2H17z"/>
	<path d="M10,20v6c0,0.553,0.447,1,1,1h5c0.553,0,1-0.447,1-1v-6H10z"/>
	<path d="M18,20v6c0,0.553,0.447,1,1,1h5c0.553,0,1-0.447,1-1v-6H18z"/>
	<path d="M17.776,6.023C16.778,6.135,16,6.973,16,8v3h1h1v1h-1h-1v3c0,1.104,0.895,2,2,2v0.829V19h7v-1.171V17c1.104,0,2-0.896,2-2
		v-3h-1h-1v-1h1h1V8c0-1.027-0.778-1.865-1.776-1.977C24.413,7.215,23.047,8,21.5,8C19.953,8,18.587,7.215,17.776,6.023z M22,9v4h1
		v1h-1h-1h-1v-1h1v-3h-1V9h1H22z"/>
	<path d="M19.764,6.522c0.064,0.038,0.131,0.075,0.198,0.108c0.175,0.086,0.357,0.154,0.546,0.21c0.067,0.021,0.132,0.046,0.2,0.063
		C20.963,6.961,21.227,7,21.5,7c0.273,0,0.537-0.039,0.792-0.098c0.068-0.017,0.133-0.042,0.2-0.063
		c0.189-0.056,0.371-0.124,0.546-0.21c0.067-0.033,0.134-0.07,0.198-0.108c0.473-0.272,0.882-0.64,1.182-1.094
		C24.784,4.875,25,4.213,25,3.5C25,1.566,23.434,0,21.5,0C19.566,0,18,1.566,18,3.5c0,0.713,0.216,1.375,0.582,1.928
		C18.882,5.882,19.291,6.25,19.764,6.522z"/>
	<path d="M27.764,6.522c0.064,0.038,0.131,0.075,0.198,0.108c0.175,0.086,0.357,0.154,0.546,0.21c0.067,0.021,0.132,0.046,0.2,0.063
		C28.963,6.961,29.227,7,29.5,7c0.273,0,0.537-0.039,0.792-0.098c0.068-0.017,0.133-0.042,0.2-0.063
		c0.189-0.056,0.371-0.124,0.546-0.21c0.067-0.033,0.134-0.07,0.198-0.108c0.175-0.1,0.338-0.214,0.491-0.342
		c0.048-0.04,0.099-0.076,0.144-0.119c0.205-0.19,0.393-0.398,0.547-0.633C32.784,4.875,33,4.213,33,3.5C33,1.566,31.434,0,29.5,0
		C27.566,0,26,1.566,26,3.5c0,0.713,0.216,1.375,0.582,1.928C26.882,5.882,27.291,6.25,27.764,6.522z"/>
	<path d="M11.129,6.061c0.045,0.043,0.096,0.079,0.144,0.119c0.153,0.128,0.316,0.242,0.491,0.342
		c0.064,0.038,0.131,0.075,0.198,0.108c0.175,0.086,0.357,0.154,0.546,0.21c0.067,0.021,0.132,0.046,0.2,0.063
		C12.963,6.961,13.227,7,13.5,7c0.273,0,0.537-0.039,0.792-0.098c0.068-0.017,0.133-0.042,0.2-0.063
		c0.189-0.056,0.371-0.124,0.546-0.21c0.067-0.033,0.134-0.07,0.198-0.108c0.473-0.272,0.882-0.64,1.182-1.094
		C16.784,4.875,17,4.213,17,3.5C17,1.566,15.434,0,13.5,0C11.566,0,10,1.566,10,3.5c0,0.713,0.216,1.375,0.582,1.928
		C10.736,5.662,10.924,5.87,11.129,6.061z"/>
	<path d="M8.358,5.511C8.76,4.941,9,4.25,9,3.5C9,1.566,7.434,0,5.5,0C3.566,0,2,1.566,2,3.5S3.566,7,5.5,7
		c0.737,0,1.419-0.231,1.983-0.619C7.824,6.146,8.119,5.85,8.358,5.511z"/>
</g>
</svg>
