<svg width="25" height="25" viewBox="0 0 25 25" fill="none" xmlns="http://www.w3.org/2000/svg">
<g id="icon/twitter">
<path id="vector" d="M20.4525 7.96356C20.4647 8.13988 20.4647 8.31619 20.4647 8.49413C20.4647 13.916 16.3371 20.1691 8.78966 20.1691V20.1659C6.56013 20.1691 4.3769 19.5305 2.5 18.3263C2.82419 18.3653 3.15001 18.3848 3.47664 18.3857C5.32429 18.3873 7.11913 17.7673 8.57272 16.6258C6.81688 16.5924 5.27717 15.4476 4.73928 13.7763C5.35436 13.8949 5.98812 13.8705 6.59181 13.7056C4.67753 13.3188 3.30033 11.6369 3.30033 9.68365C3.30033 9.66577 3.30033 9.64871 3.30033 9.63165C3.87071 9.94934 4.50934 10.1257 5.1626 10.1452C3.35964 8.9402 2.80388 6.54166 3.89265 4.66638C5.97593 7.22986 9.04966 8.78826 12.3493 8.9532C12.0186 7.52805 12.4703 6.03466 13.5364 5.03283C15.189 3.4793 17.7882 3.55893 19.3418 5.21077C20.2607 5.02958 21.1415 4.69238 21.9475 4.21463C21.6412 5.16445 21.0001 5.97128 20.1437 6.48397C20.957 6.3881 21.7517 6.17034 22.5 5.83803C21.9491 6.66354 21.2552 7.38261 20.4525 7.96356Z" fill="black"/>
</g>
</svg>
