<svg width="17" height="17" viewBox="0 0 17 17" fill="none" xmlns="http://www.w3.org/2000/svg">
<path d="M13.4583 2.125H3.54167C2.75926 2.125 2.125 2.75926 2.125 3.54167V13.4583C2.125 14.2407 2.75926 14.875 3.54167 14.875H13.4583C14.2407 14.875 14.875 14.2407 14.875 13.4583V3.54167C14.875 2.75926 14.2407 2.125 13.4583 2.125Z" stroke="#2D68F8" stroke-linecap="round" stroke-linejoin="round"/>
<path d="M6.37492 7.79165C7.15732 7.79165 7.79158 7.15738 7.79158 6.37498C7.79158 5.59258 7.15732 4.95831 6.37492 4.95831C5.59252 4.95831 4.95825 5.59258 4.95825 6.37498C4.95825 7.15738 5.59252 7.79165 6.37492 7.79165Z" stroke="#2D68F8" stroke-linecap="round" stroke-linejoin="round"/>
<path d="M14.875 10.625L12.6891 8.43907C12.4234 8.17349 12.0631 8.02429 11.6875 8.02429C11.3119 8.02429 10.9516 8.17349 10.6859 8.43907L4.25 14.875" stroke="#2D68F8" stroke-linecap="round" stroke-linejoin="round"/>
</svg>
