<svg width="104" height="104" viewBox="0 0 104 104" fill="none" xmlns="http://www.w3.org/2000/svg">
<path d="M81.6917 90C80.8962 75.5425 76.4697 65 51.8457 65C27.2223 65 22.7958 75.5425 22 90" stroke="white" stroke-width="4" stroke-miterlimit="2.9238" stroke-linecap="round" stroke-linejoin="round"/>
<path d="M52 65C63.0457 65 72 56.0457 72 45C72 33.9543 63.0457 25 52 25C40.9543 25 32 33.9543 32 45C32 56.0457 40.9543 65 52 65Z" stroke="white" stroke-width="4"/>
<path d="M52 102C79.6142 102 102 79.6142 102 52C102 24.3858 79.6142 2 52 2C24.3858 2 2 24.3858 2 52C2 79.6142 24.3858 102 52 102Z" stroke="#1C3FB7" stroke-width="4"/>
</svg>
