<svg width="49" height="49" viewBox="0 0 49 49" fill="none" xmlns="http://www.w3.org/2000/svg">
<path d="M37.6689 26.0312C35.3721 23.275 32.4627 21.3609 29.2471 20.3656C32.4627 18.6812 34.6064 15.3125 34.6064 11.4078C34.6064 5.81872 30.0893 1.22498 24.4236 1.22498C18.758 1.22498 14.3174 5.89529 14.3174 11.4843C14.3174 15.3125 16.4611 18.6812 19.6768 20.4422C16.4611 21.4375 13.6283 23.3515 11.2549 26.1078C7.88613 30.089 5.97207 35.6015 5.89551 41.65C5.89551 42.339 6.27832 42.9515 6.81426 43.1812C8.88145 44.2531 16.3846 47.6218 24.4236 47.6218C33.1518 47.6218 40.1189 44.1765 42.1096 43.1047C42.6455 42.7984 43.0283 42.1859 43.0283 41.5734C42.9518 35.6015 41.0377 30.089 37.6689 26.0312ZM24.5002 4.82341C28.1752 4.82341 31.2377 7.80935 31.2377 11.5609C31.2377 15.3125 28.2518 18.2984 24.5002 18.2984C20.7486 18.2984 17.7627 15.3125 17.7627 11.5609C17.7627 7.80935 20.8252 4.82341 24.5002 4.82341ZM24.5002 44.2531C18.1455 44.2531 11.9439 41.8031 9.41738 40.5781C9.72363 35.7547 11.2549 31.4672 13.9346 28.2515C16.6908 24.9594 20.4424 23.1218 24.5002 23.1218C28.558 23.1218 32.3096 24.9594 35.0658 28.2515C37.7455 31.3906 39.3533 35.7547 39.583 40.5781C37.2096 41.8031 31.3908 44.2531 24.5002 44.2531Z" fill="white"/>
</svg>
