<svg width="22" height="23" viewBox="0 0 22 23" fill="none" xmlns="http://www.w3.org/2000/svg">
<g id="user-check">
<path id="Vector" d="M14.6666 20.125V18.2083C14.6666 17.1917 14.2803 16.2166 13.5926 15.4978C12.905 14.7789 11.9724 14.375 10.9999 14.375H5.49992C4.52746 14.375 3.59483 14.7789 2.90719 15.4978C2.21956 16.2166 1.83325 17.1917 1.83325 18.2083V20.125" stroke="white" stroke-width="2" stroke-linecap="round" stroke-linejoin="round"/>
<path id="Vector_2" d="M8.24992 10.5417C10.275 10.5417 11.9166 8.82543 11.9166 6.70833C11.9166 4.59124 10.275 2.875 8.24992 2.875C6.22487 2.875 4.58325 4.59124 4.58325 6.70833C4.58325 8.82543 6.22487 10.5417 8.24992 10.5417Z" stroke="white" stroke-width="2" stroke-linecap="round" stroke-linejoin="round"/>
<path id="Vector_3" d="M14.6667 10.5417L16.5001 12.4583L20.1667 8.625" stroke="white" stroke-width="2" stroke-linecap="round" stroke-linejoin="round"/>
</g>
</svg>
